<svg width="1575" height="1552" viewBox="0 0 1575 1552" fill="none" xmlns="http://www.w3.org/2000/svg">
<path d="M723.632 1435.26H12L12.0001 12L723.632 12.0001C1116.65 12.0001 1435.26 330.609 1435.26 723.632C1435.26 1116.65 1116.65 1435.26 723.632 1435.26Z" fill="#24FF00" stroke="white" stroke-width="22.2385" stroke-linecap="square"/>
<path fill-rule="evenodd" clip-rule="evenodd" d="M901.54 723.632C901.54 821.888 821.888 901.54 723.632 901.54C625.376 901.54 545.724 821.888 545.724 723.632C545.724 625.376 625.376 545.724 723.632 545.724C821.888 545.724 901.54 625.376 901.54 723.632ZM723.632 812.586C772.76 812.586 812.586 772.76 812.586 723.632C812.586 674.504 772.76 634.678 723.632 634.678C674.504 634.678 634.678 674.504 634.678 723.632C634.678 772.76 674.504 812.586 723.632 812.586Z" fill="white"/>
<path d="M851.632 1540.26H140L140 117L851.632 117C1244.65 117 1563.26 435.609 1563.26 828.632C1563.26 1221.65 1244.65 1540.26 851.632 1540.26Z" fill="black" stroke="white" stroke-width="22.2385" stroke-linecap="square"/>
<path d="M1563.26 828.631H140" stroke="white" stroke-width="22.2385" stroke-linecap="square"/>
<path fill-rule="evenodd" clip-rule="evenodd" d="M1029.54 828.632C1029.54 926.888 949.888 1006.54 851.632 1006.54C753.376 1006.54 673.724 926.888 673.724 828.632C673.724 730.376 753.376 650.724 851.632 650.724C949.888 650.724 1029.54 730.376 1029.54 828.632ZM851.632 917.586C900.76 917.586 940.586 877.76 940.586 828.632C940.586 779.504 900.76 739.678 851.632 739.678C802.504 739.678 762.678 779.504 762.678 828.632C762.678 877.76 802.504 917.586 851.632 917.586Z" fill="white"/>
</svg>
