<svg width="1916" height="339" viewBox="0 0 1916 339" fill="none" xmlns="http://www.w3.org/2000/svg">
<mask id="path-1-outside-1_59_17" maskUnits="userSpaceOnUse" x="0.5" y="0.140625" width="1915" height="339" fill="black">
<rect fill="white" x="0.5" y="0.140625" width="1915" height="339"/>
<path d="M217.781 6.78125C213.094 11.75 208.734 16.9531 204.703 22.3906C213.516 27.2656 221.344 33.125 228.188 39.9688C235.125 46.7188 240.938 54.1719 245.625 62.3281C250.406 70.4844 254.016 79.25 256.453 88.625C258.984 97.9062 260.25 107.516 260.25 117.453C260.25 126.266 259.359 135.031 257.578 143.75C255.891 152.469 253.172 160.812 249.422 168.781C245.766 176.656 241.078 184.016 235.359 190.859C229.641 197.609 222.797 203.516 214.828 208.578C206.859 213.547 197.766 217.438 187.547 220.25C177.328 223.156 165.844 224.609 153.094 224.609C141.75 224.609 130.969 223.531 120.75 221.375C110.531 219.312 100.734 217.016 91.3594 214.484C84.1406 219.359 76.2188 223.156 67.5938 225.875C59.0625 228.594 49.4062 229.953 38.625 229.953C34.2188 229.953 30.4219 229.531 27.2344 228.688C24.0469 227.938 21.4219 226.859 19.3594 225.453C17.3906 224.047 15.8906 222.406 14.8594 220.531C13.9219 218.75 13.4531 216.875 13.4531 214.906C13.4531 212.562 14.0156 210.359 15.1406 208.297C16.3594 206.141 18.1406 204.266 20.4844 202.672C22.9219 201.078 25.9688 199.812 29.625 198.875C33.375 197.938 37.7344 197.469 42.7031 197.469C49.5469 197.469 56.3438 198.219 63.0938 199.719C69.9375 201.125 76.875 202.766 83.9062 204.641C90.75 198.453 96.9844 191.047 102.609 182.422C108.328 173.703 113.766 164.234 118.922 154.016C124.172 143.703 129.281 132.922 134.25 121.672C139.312 110.422 144.656 99.125 150.281 87.7812C156 76.4375 162.141 65.3281 168.703 54.4531C175.359 43.5781 182.812 33.3594 191.062 23.7969C184.031 20.7969 176.391 18.5 168.141 16.9062C159.984 15.2188 151.219 14.375 141.844 14.375C130.406 14.375 119.391 15.5469 108.797 17.8906C98.2031 20.2344 88.3125 23.4688 79.125 27.5938C69.9375 31.7188 61.5469 36.5469 53.9531 42.0781C46.3594 47.6094 39.8438 53.6094 34.4062 60.0781C29.0625 66.4531 24.8906 73.1562 21.8906 80.1875C18.9844 87.125 17.5312 94.0625 17.5312 101C17.5312 105.5 18.4219 109.766 20.2031 113.797C21.9844 117.828 24.4219 121.391 27.5156 124.484C30.6094 127.484 34.2656 129.875 38.4844 131.656C42.7031 133.438 47.2969 134.328 52.2656 134.328C56.1094 134.328 59.9062 133.906 63.6562 133.062C67.5 132.125 71.1562 131 74.625 129.688C78.0938 128.375 81.3281 126.969 84.3281 125.469C87.3281 123.875 89.9531 122.422 92.2031 121.109C94.4531 119.703 96.1875 118.578 97.4062 117.734C98.7188 116.797 99.4219 116.281 99.5156 116.188L104.016 122.094C99.6094 125 95.0156 127.812 90.2344 130.531C85.5469 133.156 80.6719 135.547 75.6094 137.703C70.5469 139.766 65.2969 141.453 59.8594 142.766C54.4219 143.984 48.8906 144.594 43.2656 144.594C37.6406 144.594 32.2969 143.656 27.2344 141.781C22.1719 139.812 17.7188 137.094 13.875 133.625C10.125 130.062 7.125 125.844 4.875 120.969C2.625 116.094 1.5 110.703 1.5 104.797C1.5 98.0469 3 90.9688 6 83.5625C9.09375 76.1562 13.4531 68.8438 19.0781 61.625C24.7969 54.3125 31.7812 47.375 40.0312 40.8125C48.2812 34.25 57.5625 28.4844 67.875 23.5156C78.2812 18.4531 89.6719 14.4688 102.047 11.5625C114.516 8.5625 127.781 7.0625 141.844 7.0625C152.062 7.0625 161.672 8.04688 170.672 10.0156C179.766 11.8906 188.25 14.6094 196.125 18.1719C201.469 12.4531 207.234 7.10938 213.422 2.14062L217.781 6.78125ZM244.922 107.891C244.922 99.1719 243.938 90.875 241.969 83C240 75.125 237.094 67.8125 233.25 61.0625C229.5 54.3125 224.859 48.1719 219.328 42.6406C213.797 37.1094 207.469 32.375 200.344 28.4375C193.5 38.2812 187.266 48.6875 181.641 59.6562C176.016 70.625 170.719 81.7344 165.75 92.9844C160.781 104.234 155.906 115.391 151.125 126.453C146.344 137.516 141.328 148.109 136.078 158.234C130.922 168.266 125.297 177.641 119.203 186.359C113.109 194.984 106.266 202.484 98.6719 208.859C106.172 210.922 113.672 212.703 121.172 214.203C128.672 215.797 136.406 216.594 144.375 216.594C160.875 216.594 175.406 213.781 187.969 208.156C200.531 202.438 211.031 194.703 219.469 184.953C227.906 175.109 234.234 163.578 238.453 150.359C242.766 137.141 244.922 122.984 244.922 107.891ZM38.0625 222.641C45.6562 222.641 52.5938 221.562 58.875 219.406C65.25 217.344 71.1562 214.344 76.5938 210.406C70.4062 208.812 64.5 207.5 58.875 206.469C53.25 205.344 47.8594 204.781 42.7031 204.781C35.3906 204.781 29.9062 205.766 26.25 207.734C22.6875 209.609 20.9062 211.906 20.9062 214.625C20.9062 216.781 22.1719 218.656 24.7031 220.25C27.3281 221.844 31.7812 222.641 38.0625 222.641Z"/>
<path d="M386.109 115.484C384.891 117.922 383.156 121.109 380.906 125.047C378.75 128.984 376.406 133.344 373.875 138.125C371.344 142.812 368.766 147.734 366.141 152.891C363.609 158.047 361.266 163.109 359.109 168.078C357.047 172.953 355.312 177.594 353.906 182C352.594 186.312 351.938 189.969 351.938 192.969C351.938 195.969 352.5 197.938 353.625 198.875C354.844 199.719 356.391 200.141 358.266 200.141C360.984 200.141 363.75 199.344 366.562 197.75C369.469 196.156 372.281 194.094 375 191.562C377.812 189.031 380.531 186.172 383.156 182.984C385.781 179.797 388.219 176.609 390.469 173.422C392.812 170.141 394.922 167.047 396.797 164.141C398.672 161.141 400.266 158.609 401.578 156.547L406.641 160.484C405.047 163.484 403.172 166.719 401.016 170.188C398.859 173.656 396.469 177.172 393.844 180.734C391.312 184.203 388.547 187.578 385.547 190.859C382.547 194.141 379.359 197.047 375.984 199.578C372.703 202.109 369.234 204.125 365.578 205.625C361.922 207.125 358.172 207.875 354.328 207.875C348.703 207.875 344.578 206.188 341.953 202.812C339.328 199.438 338.016 195.078 338.016 189.734C338.016 189.359 338.016 188.562 338.016 187.344C338.109 186.031 338.25 185 338.438 184.25C333.75 190.156 329.25 195.031 324.938 198.875C320.719 202.719 316.594 205.766 312.562 208.016C308.625 210.266 304.781 211.812 301.031 212.656C297.375 213.594 293.859 214.062 290.484 214.062C286.922 214.062 283.547 213.453 280.359 212.234C277.266 211.109 274.547 209.422 272.203 207.172C269.766 204.922 267.891 202.156 266.578 198.875C265.172 195.594 264.469 191.797 264.469 187.484C264.469 182.141 265.688 176.047 268.125 169.203C270.469 162.266 274.688 154.812 280.781 146.844C285.938 140 291.281 134.234 296.812 129.547C302.438 124.859 307.922 121.109 313.266 118.297C318.703 115.391 323.859 113.328 328.734 112.109C333.609 110.891 337.969 110.281 341.812 110.281C350.438 110.281 356.953 111.734 361.359 114.641C365.766 117.453 368.438 121.812 369.375 127.719C371.25 125.375 373.219 123.031 375.281 120.688C377.344 118.344 379.453 115.953 381.609 113.516L386.109 115.484ZM342.938 168.922C344.156 166.953 345.656 164.469 347.438 161.469C349.219 158.375 351.094 155.234 353.062 152.047C355.031 148.766 356.953 145.625 358.828 142.625C360.703 139.625 362.344 137.094 363.75 135.031C363.75 134.188 363.609 132.828 363.328 130.953C363.141 129.078 362.531 127.203 361.5 125.328C360.469 123.359 358.828 121.672 356.578 120.266C354.328 118.859 351.188 118.156 347.156 118.156C344.25 118.156 340.969 118.625 337.312 119.562C333.75 120.406 329.906 121.906 325.781 124.062C321.75 126.125 317.578 128.891 313.266 132.359C308.953 135.828 304.641 140.141 300.328 145.297C293.859 153.078 288.844 160.906 285.281 168.781C281.812 176.562 280.078 183.594 280.078 189.875C280.078 195.219 281.297 199.344 283.734 202.25C286.172 205.156 289.641 206.609 294.141 206.609C299.297 206.609 304.125 205.484 308.625 203.234C313.125 200.891 317.344 197.891 321.281 194.234C325.219 190.578 328.969 186.547 332.531 182.141C336.094 177.641 339.562 173.234 342.938 168.922Z"/>
<path d="M476.109 155.141C474.609 151.859 473.438 148.438 472.594 144.875C471.844 141.312 471.469 137.609 471.469 133.766C471.469 128.797 471.891 124.625 472.734 121.25C473.672 117.781 474.797 115.016 476.109 112.953C477.422 110.797 478.828 109.25 480.328 108.312C481.922 107.375 483.422 106.906 484.828 106.906C486.047 106.906 487.172 107.188 488.203 107.75C489.328 108.219 490.312 109.062 491.156 110.281C492 111.5 492.656 113.094 493.125 115.062C493.688 117.031 493.969 119.469 493.969 122.375C493.969 129.125 492.609 136.062 489.891 143.188C487.266 150.312 483.703 157.203 479.203 163.859C474.797 170.516 469.688 176.797 463.875 182.703C458.062 188.609 452.062 193.812 445.875 198.312C444.188 199.531 442.219 200.844 439.969 202.25C437.812 203.562 435.469 204.828 432.938 206.047C430.5 207.172 427.922 208.156 425.203 209C422.578 209.75 420 210.125 417.469 210.125C411.188 210.125 406.031 207.781 402 203.094C398.062 198.312 396.094 191.656 396.094 183.125C396.094 179.188 396.656 174.969 397.781 170.469C398.906 165.969 400.453 161.375 402.422 156.688C404.391 151.906 406.688 147.125 409.312 142.344C411.938 137.562 414.703 133.016 417.609 128.703C420.609 124.297 423.703 120.172 426.891 116.328C430.078 112.484 433.219 109.109 436.312 106.203L442.5 110.281C437.062 118.531 432.375 126.547 428.438 134.328C424.5 142.016 421.219 149.281 418.594 156.125C416.062 162.969 414.141 169.25 412.828 174.969C411.609 180.594 411 185.469 411 189.594C411 194.375 411.609 197.797 412.828 199.859C414.141 201.828 415.969 202.812 418.312 202.812C420.562 202.812 423.656 202.016 427.594 200.422C431.625 198.734 436.266 196.062 441.516 192.406C448.172 187.719 454.5 182.188 460.5 175.812C466.594 169.344 471.797 162.453 476.109 155.141ZM480.609 148.109C482.484 143.891 483.938 139.531 484.969 135.031C486.094 130.438 486.656 126.125 486.656 122.094C486.656 119.281 486.422 117.266 485.953 116.047C485.484 114.828 485.109 114.125 484.828 113.938C484.734 113.938 484.359 114.219 483.703 114.781C483.047 115.344 482.297 116.375 481.453 117.875C480.703 119.281 480 121.297 479.344 123.922C478.781 126.453 478.5 129.734 478.5 133.766C478.5 136.109 478.641 138.594 478.922 141.219C479.297 143.844 479.859 146.141 480.609 148.109Z"/>
<path d="M565.547 84.2656C565.547 86.1406 565.078 88.1094 564.141 90.1719C563.203 92.1406 561.984 93.9219 560.484 95.5156C559.078 97.1094 557.484 98.4219 555.703 99.4531C553.922 100.484 552.141 101 550.359 101C548.766 101 547.547 100.438 546.703 99.3125C545.859 98.0938 545.438 96.6406 545.438 94.9531C545.438 93.4531 545.719 91.6719 546.281 89.6094C546.844 87.5469 547.688 85.625 548.812 83.8438C549.938 81.9688 551.297 80.375 552.891 79.0625C554.484 77.75 556.312 77.0938 558.375 77.0938C560.344 77.0938 562.031 77.8438 563.438 79.3438C564.844 80.8438 565.547 82.4844 565.547 84.2656ZM539.25 115.484C538.031 117.922 536.297 121.156 534.047 125.188C531.891 129.125 529.547 133.484 527.016 138.266C524.484 142.953 521.906 147.922 519.281 153.172C516.656 158.328 514.266 163.391 512.109 168.359C510.047 173.234 508.359 177.828 507.047 182.141C505.734 186.453 505.078 190.109 505.078 193.109C505.078 195.828 505.641 197.703 506.766 198.734C507.891 199.672 509.484 200.141 511.547 200.141C515.391 200.141 519.141 198.875 522.797 196.344C526.453 193.812 530.062 190.531 533.625 186.5C537.281 182.375 540.844 177.688 544.312 172.438C547.781 167.188 551.25 161.891 554.719 156.547L559.781 160.484C557.062 165.359 553.969 170.562 550.5 176.094C547.125 181.625 543.328 186.781 539.109 191.562C534.891 196.25 530.25 200.141 525.188 203.234C520.125 206.328 514.594 207.875 508.594 207.875C502.969 207.875 498.656 206.188 495.656 202.812C492.656 199.438 491.156 195.078 491.156 189.734C491.156 183.453 492.609 176.891 495.516 170.047C498.422 163.203 502.031 156.453 506.344 149.797C510.75 143.047 515.484 136.578 520.547 130.391C525.703 124.203 530.438 118.578 534.75 113.516L539.25 115.484Z"/>
<path d="M711.516 24.2188C710.484 25.7188 708.797 28.2031 706.453 31.6719C704.109 35.1406 701.391 39.2656 698.297 44.0469C695.203 48.8281 691.828 54.125 688.172 59.9375C684.609 65.75 681 71.75 677.344 77.9375C673.781 84.125 670.266 90.4062 666.797 96.7812C663.422 103.062 660.422 109.109 657.797 114.922C653.672 123.922 650.25 131.984 647.531 139.109C644.906 146.141 642.797 152.422 641.203 157.953C639.703 163.484 638.625 168.312 637.969 172.438C637.406 176.469 637.125 179.938 637.125 182.844C637.125 188.188 637.922 191.891 639.516 193.953C641.203 196.016 643.453 197.047 646.266 197.047C649.172 197.047 651.938 196.297 654.562 194.797C657.281 193.297 659.859 191.375 662.297 189.031C664.828 186.688 667.172 184.016 669.328 181.016C671.578 178.016 673.641 175.016 675.516 172.016C677.484 169.016 679.266 166.156 680.859 163.438C682.453 160.719 683.859 158.422 685.078 156.547L690.141 160.484C689.109 162.172 687.797 164.422 686.203 167.234C684.703 169.953 682.969 172.953 681 176.234C679.031 179.516 676.781 182.844 674.25 186.219C671.719 189.5 668.906 192.5 665.812 195.219C662.812 197.938 659.438 200.188 655.688 201.969C652.031 203.656 648.047 204.5 643.734 204.5C641.672 204.5 639.469 204.219 637.125 203.656C634.875 203.094 632.766 202.109 630.797 200.703C628.828 199.297 627.094 197.375 625.594 194.938C624.094 192.406 623.109 189.219 622.641 185.375C615.609 192.969 608.766 198.734 602.109 202.672C595.453 206.516 589.172 208.438 583.266 208.438C580.266 208.438 576.938 207.922 573.281 206.891C569.719 205.859 566.344 204.078 563.156 201.547C559.969 199.016 557.297 195.688 555.141 191.562C552.984 187.344 551.906 182.141 551.906 175.953C551.906 169.016 552.984 162.406 555.141 156.125C557.297 149.844 560.203 144.031 563.859 138.688C567.516 133.25 571.688 128.375 576.375 124.062C581.156 119.656 586.125 115.953 591.281 112.953C596.438 109.859 601.594 107.469 606.75 105.781C612 104.094 616.922 103.25 621.516 103.25C627.609 103.25 632.391 104 635.859 105.5C639.328 107 641.953 108.5 643.734 110C645.047 107.375 646.828 104.047 649.078 100.016C651.328 95.8906 653.953 91.3438 656.953 86.375C659.953 81.3125 663.281 75.9688 666.938 70.3438C670.594 64.625 674.484 58.9062 678.609 53.1875C682.734 47.375 687.047 41.6562 691.547 36.0312C696.141 30.4062 700.781 25.1562 705.469 20.2812L711.516 24.2188ZM622.5 174.828C622.969 167.891 624.562 159.734 627.281 150.359C630.094 140.891 634.359 130.016 640.078 117.734C638.766 115.766 636.891 114.266 634.453 113.234C632.109 112.109 629.438 111.547 626.438 111.547C621.844 111.547 617.156 112.484 612.375 114.359C607.688 116.234 603.141 118.766 598.734 121.953C594.422 125.141 590.344 128.938 586.5 133.344C582.656 137.656 579.281 142.297 576.375 147.266C573.562 152.234 571.312 157.438 569.625 162.875C568.031 168.219 567.234 173.516 567.234 178.766C567.234 185.797 568.688 191.281 571.594 195.219C574.594 199.156 578.578 201.125 583.547 201.125C585.891 201.125 588.469 200.656 591.281 199.719C594.094 198.781 597.141 197.281 600.422 195.219C603.797 193.062 607.312 190.344 610.969 187.062C614.625 183.688 618.469 179.609 622.5 174.828Z"/>
<path d="M1141.55 257.516C1141.27 257.703 1140 258.359 1137.75 259.484C1135.5 260.609 1132.55 261.828 1128.89 263.141C1125.23 264.453 1121.06 265.625 1116.38 266.656C1111.69 267.781 1106.81 268.344 1101.75 268.344C1093.5 268.344 1086.09 266.891 1079.53 263.984C1072.97 261.078 1067.39 256.953 1062.8 251.609C1058.3 246.359 1054.83 239.984 1052.39 232.484C1049.95 225.078 1048.73 216.828 1048.73 207.734C1048.73 199.016 1049.81 189.453 1051.97 179.047C1054.12 168.547 1056.94 157.766 1060.41 146.703C1063.88 135.641 1067.77 124.578 1072.08 113.516C1076.48 102.453 1080.89 91.9531 1085.3 82.0156C1089.8 71.9844 1094.06 62.8438 1098.09 54.5938C1102.12 46.25 1105.59 39.3125 1108.5 33.7812C1103.25 39.7812 1097.25 46.7188 1090.5 54.5938C1083.75 62.375 1076.53 70.9531 1068.84 80.3281C1061.25 89.6094 1053.33 99.5469 1045.08 110.141C1036.83 120.641 1028.48 131.609 1020.05 143.047C1011.7 154.391 1003.41 166.062 995.156 178.062C986.906 189.969 979.031 201.969 971.531 214.062L964.781 211.812C966.188 196.531 968.484 181.391 971.672 166.391C974.953 151.297 978.609 136.812 982.641 122.938C986.766 108.969 991.078 95.8906 995.578 83.7031C1000.17 71.4219 1004.53 60.4531 1008.66 50.7969C1002.38 59.4219 996.094 68.7969 989.812 78.9219C983.625 88.9531 977.344 99.3125 970.969 110C964.594 120.594 958.031 131.281 951.281 142.062C944.531 152.75 937.5 163.062 930.188 173C922.875 182.844 915.141 192.078 906.984 200.703C898.922 209.234 890.297 216.641 881.109 222.922C872.016 229.297 862.266 234.312 851.859 237.969C841.547 241.625 830.484 243.453 818.672 243.453C809.578 243.453 801.328 242.094 793.922 239.375C786.516 236.656 780.141 232.906 774.797 228.125C769.547 223.438 765.516 217.906 762.703 211.531C759.797 205.156 758.344 198.266 758.344 190.859C758.344 183.641 759.516 177.125 761.859 171.312C764.109 165.406 767.156 160.203 771 155.703C774.844 151.109 779.297 147.172 784.359 143.891C789.516 140.516 794.906 137.75 800.531 135.594C806.156 133.438 811.828 131.844 817.547 130.812C823.359 129.781 828.891 129.266 834.141 129.266C845.016 129.266 855.422 130.578 865.359 133.203C875.297 135.734 884.859 140.281 894.047 146.844L889.125 152.328C889.031 152.234 887.812 151.391 885.469 149.797C883.125 148.109 879.75 146.281 875.344 144.312C870.938 142.344 865.453 140.562 858.891 138.969C852.422 137.375 845.016 136.578 836.672 136.578C828.609 136.578 820.781 137.656 813.188 139.812C805.688 141.969 799.031 145.25 793.219 149.656C787.5 153.969 782.906 159.453 779.438 166.109C775.969 172.672 774.234 180.406 774.234 189.312C774.234 195.688 775.453 201.594 777.891 207.031C780.422 212.469 783.891 217.156 788.297 221.094C792.703 225.125 798 228.266 804.188 230.516C810.375 232.766 817.219 233.891 824.719 233.891C835.969 233.891 846.75 231.5 857.062 226.719C867.375 221.938 877.312 215.469 886.875 207.312C896.438 199.156 905.625 189.641 914.438 178.766C923.344 167.891 931.875 156.406 940.031 144.312C948.281 132.219 956.25 119.797 963.938 107.047C971.625 94.2969 979.078 82.0156 986.297 70.2031C993.516 58.2969 1000.55 47.1875 1007.39 36.875C1014.23 26.4688 1020.94 17.5156 1027.5 10.0156L1033.83 13.8125C1029.7 26.375 1026.14 37.4375 1023.14 47C1020.14 56.4688 1017.52 64.8125 1015.27 72.0312C1013.11 79.25 1011.23 85.4844 1009.64 90.7344C1008.14 95.9844 1006.83 100.672 1005.7 104.797C1004.58 108.922 1003.55 112.672 1002.61 116.047C1001.77 119.328 1000.88 122.609 999.938 125.891C999.094 129.172 998.109 132.641 996.984 136.297C995.859 139.953 994.5 144.219 992.906 149.094C991.312 153.875 989.438 159.453 987.281 165.828C985.125 172.109 982.5 179.562 979.406 188.188C987.281 176.281 995.344 164.562 1003.59 153.031C1011.94 141.5 1020.23 130.344 1028.48 119.562C1036.73 108.781 1044.8 98.4688 1052.67 88.625C1060.64 78.7812 1068.14 69.6406 1075.17 61.2031C1082.3 52.7656 1088.81 45.125 1094.72 38.2812C1100.72 31.3438 1105.92 25.4375 1110.33 20.5625C1114.73 15.6875 1118.16 11.8906 1120.59 9.17188C1123.12 6.45312 1124.44 5.04688 1124.53 4.95312L1130.44 9.3125C1124.91 23 1119.42 36.7344 1113.98 50.5156C1108.55 64.2031 1103.3 77.5625 1098.23 90.5938C1093.27 103.625 1088.62 116.188 1084.31 128.281C1080 140.375 1076.25 151.719 1073.06 162.312C1069.88 172.812 1067.34 182.422 1065.47 191.141C1063.69 199.766 1062.8 207.172 1062.8 213.359C1062.8 220.672 1063.64 227.281 1065.33 233.188C1067.11 239.094 1069.64 244.109 1072.92 248.234C1076.2 252.359 1080.23 255.5 1085.02 257.656C1089.89 259.906 1095.38 261.031 1101.47 261.031C1106.06 261.031 1110.52 260.516 1114.83 259.484C1119.23 258.453 1123.12 257.328 1126.5 256.109C1129.88 254.891 1132.59 253.766 1134.66 252.734C1136.72 251.703 1137.8 251.188 1137.89 251.188L1141.55 257.516Z"/>
<path d="M1229.58 115.484C1228.36 117.922 1226.62 121.109 1224.38 125.047C1222.22 128.984 1219.88 133.344 1217.34 138.125C1214.81 142.812 1212.23 147.734 1209.61 152.891C1207.08 158.047 1204.73 163.109 1202.58 168.078C1200.52 172.953 1198.78 177.594 1197.38 182C1196.06 186.312 1195.41 189.969 1195.41 192.969C1195.41 195.969 1195.97 197.938 1197.09 198.875C1198.31 199.719 1199.86 200.141 1201.73 200.141C1204.45 200.141 1207.22 199.344 1210.03 197.75C1212.94 196.156 1215.75 194.094 1218.47 191.562C1221.28 189.031 1224 186.172 1226.62 182.984C1229.25 179.797 1231.69 176.609 1233.94 173.422C1236.28 170.141 1238.39 167.047 1240.27 164.141C1242.14 161.141 1243.73 158.609 1245.05 156.547L1250.11 160.484C1248.52 163.484 1246.64 166.719 1244.48 170.188C1242.33 173.656 1239.94 177.172 1237.31 180.734C1234.78 184.203 1232.02 187.578 1229.02 190.859C1226.02 194.141 1222.83 197.047 1219.45 199.578C1216.17 202.109 1212.7 204.125 1209.05 205.625C1205.39 207.125 1201.64 207.875 1197.8 207.875C1192.17 207.875 1188.05 206.188 1185.42 202.812C1182.8 199.438 1181.48 195.078 1181.48 189.734C1181.48 189.359 1181.48 188.562 1181.48 187.344C1181.58 186.031 1181.72 185 1181.91 184.25C1177.22 190.156 1172.72 195.031 1168.41 198.875C1164.19 202.719 1160.06 205.766 1156.03 208.016C1152.09 210.266 1148.25 211.812 1144.5 212.656C1140.84 213.594 1137.33 214.062 1133.95 214.062C1130.39 214.062 1127.02 213.453 1123.83 212.234C1120.73 211.109 1118.02 209.422 1115.67 207.172C1113.23 204.922 1111.36 202.156 1110.05 198.875C1108.64 195.594 1107.94 191.797 1107.94 187.484C1107.94 182.141 1109.16 176.047 1111.59 169.203C1113.94 162.266 1118.16 154.812 1124.25 146.844C1129.41 140 1134.75 134.234 1140.28 129.547C1145.91 124.859 1151.39 121.109 1156.73 118.297C1162.17 115.391 1167.33 113.328 1172.2 112.109C1177.08 110.891 1181.44 110.281 1185.28 110.281C1193.91 110.281 1200.42 111.734 1204.83 114.641C1209.23 117.453 1211.91 121.812 1212.84 127.719C1214.72 125.375 1216.69 123.031 1218.75 120.688C1220.81 118.344 1222.92 115.953 1225.08 113.516L1229.58 115.484ZM1186.41 168.922C1187.62 166.953 1189.12 164.469 1190.91 161.469C1192.69 158.375 1194.56 155.234 1196.53 152.047C1198.5 148.766 1200.42 145.625 1202.3 142.625C1204.17 139.625 1205.81 137.094 1207.22 135.031C1207.22 134.188 1207.08 132.828 1206.8 130.953C1206.61 129.078 1206 127.203 1204.97 125.328C1203.94 123.359 1202.3 121.672 1200.05 120.266C1197.8 118.859 1194.66 118.156 1190.62 118.156C1187.72 118.156 1184.44 118.625 1180.78 119.562C1177.22 120.406 1173.38 121.906 1169.25 124.062C1165.22 126.125 1161.05 128.891 1156.73 132.359C1152.42 135.828 1148.11 140.141 1143.8 145.297C1137.33 153.078 1132.31 160.906 1128.75 168.781C1125.28 176.562 1123.55 183.594 1123.55 189.875C1123.55 195.219 1124.77 199.344 1127.2 202.25C1129.64 205.156 1133.11 206.609 1137.61 206.609C1142.77 206.609 1147.59 205.484 1152.09 203.234C1156.59 200.891 1160.81 197.891 1164.75 194.234C1168.69 190.578 1172.44 186.547 1176 182.141C1179.56 177.641 1183.03 173.234 1186.41 168.922Z"/>
<path d="M1298.77 204.219C1293.89 207.5 1288.83 210.125 1283.58 212.094C1278.42 214.156 1273.45 215.188 1268.67 215.188C1265.11 215.188 1261.55 214.672 1257.98 213.641C1254.42 212.609 1251.19 210.922 1248.28 208.578C1245.38 206.141 1243.03 202.953 1241.25 199.016C1239.38 195.078 1238.44 190.203 1238.44 184.391C1238.44 177.359 1239.7 170.609 1242.23 164.141C1244.77 157.672 1248.14 151.672 1252.36 146.141C1256.58 140.516 1261.41 135.406 1266.84 130.812C1272.28 126.219 1277.86 122.328 1283.58 119.141C1289.39 115.859 1295.16 113.328 1300.88 111.547C1306.59 109.766 1311.8 108.875 1316.48 108.875C1321.08 108.875 1324.97 109.391 1328.16 110.422C1331.44 111.359 1334.2 112.578 1336.45 114.078C1338.7 115.484 1340.48 117.031 1341.8 118.719C1343.11 120.406 1344.19 122 1345.03 123.5L1352.62 113.516L1357.27 116.609C1357.27 116.703 1356.52 118.203 1355.02 121.109C1353.52 123.922 1351.55 127.719 1349.11 132.5C1346.67 137.281 1343.81 142.906 1340.53 149.375C1337.34 155.75 1333.97 162.547 1330.41 169.766C1326.94 176.984 1323.38 184.438 1319.72 192.125C1316.16 199.812 1312.73 207.359 1309.45 214.766C1317.98 209.891 1325.48 205.203 1331.95 200.703C1338.42 196.203 1344.19 191.656 1349.25 187.062C1354.41 182.469 1359.05 177.688 1363.17 172.719C1367.3 167.75 1371.28 162.359 1375.12 156.547L1380.33 160.484C1376.58 166.578 1372.5 172.25 1368.09 177.5C1363.78 182.656 1358.67 187.812 1352.77 192.969C1346.95 198.031 1340.11 203.281 1332.23 208.719C1324.45 214.062 1315.17 219.969 1304.39 226.438C1295.48 248.281 1286.91 266.328 1278.66 280.578C1270.41 294.922 1262.58 306.266 1255.17 314.609C1247.86 322.953 1241.06 328.812 1234.78 332.188C1228.41 335.562 1222.69 337.25 1217.62 337.25C1215.56 337.25 1213.36 336.969 1211.02 336.406C1208.58 335.938 1206.33 334.953 1204.27 333.453C1202.2 331.953 1200.52 329.891 1199.2 327.266C1197.8 324.641 1197.09 321.266 1197.09 317.141C1197.09 309.266 1199.2 301.484 1203.42 293.797C1207.55 286.109 1213.59 278.469 1221.56 270.875C1229.44 263.281 1239.09 255.734 1250.53 248.234C1262.06 240.734 1275.09 233.188 1289.62 225.594C1291.41 221.562 1293.05 217.719 1294.55 214.062C1296.05 210.5 1297.45 207.219 1298.77 204.219ZM1306.08 188.75C1308.61 183.969 1311.09 179.281 1313.53 174.688C1316.06 170 1318.64 165.359 1321.27 160.766C1323.98 156.078 1326.84 151.297 1329.84 146.422C1332.94 141.547 1336.36 136.484 1340.11 131.234C1339.92 129.828 1339.45 128.375 1338.7 126.875C1337.95 125.375 1336.92 124.016 1335.61 122.797C1334.3 121.484 1332.61 120.406 1330.55 119.562C1328.48 118.719 1326.05 118.297 1323.23 118.297C1320.05 118.297 1316.39 118.719 1312.27 119.562C1308.23 120.406 1303.97 121.859 1299.47 123.922C1294.97 125.984 1290.38 128.75 1285.69 132.219C1281.09 135.688 1276.59 140.047 1272.19 145.297C1265.72 152.984 1260.75 160.672 1257.28 168.359C1253.81 175.953 1252.08 182.891 1252.08 189.172C1252.08 195.266 1253.62 199.906 1256.72 203.094C1259.81 206.188 1264.03 207.734 1269.38 207.734C1275 207.734 1280.95 206 1287.23 202.531C1293.61 199.062 1299.89 194.469 1306.08 188.75ZM1217.62 330.078C1221.19 330.078 1224.89 328.766 1228.73 326.141C1232.58 323.516 1236.47 319.906 1240.41 315.312C1244.34 310.812 1248.23 305.562 1252.08 299.562C1255.92 293.562 1259.72 287.141 1263.47 280.297C1267.22 273.547 1270.78 266.609 1274.16 259.484C1277.62 252.359 1280.91 245.375 1284 238.531C1270.03 245.844 1258.08 253.438 1248.14 261.312C1238.3 269.281 1230.23 276.875 1223.95 284.094C1217.67 291.312 1213.12 297.828 1210.31 303.641C1207.41 309.453 1205.95 313.906 1205.95 317C1205.95 320.844 1206.8 323.984 1208.48 326.422C1210.17 328.859 1213.22 330.078 1217.62 330.078Z"/>
<path d="M1486.92 115.484C1485.7 117.922 1483.97 121.109 1481.72 125.047C1479.56 128.984 1477.22 133.344 1474.69 138.125C1472.16 142.812 1469.58 147.734 1466.95 152.891C1464.42 158.047 1462.08 163.109 1459.92 168.078C1457.86 172.953 1456.12 177.594 1454.72 182C1453.41 186.312 1452.75 189.969 1452.75 192.969C1452.75 195.969 1453.31 197.938 1454.44 198.875C1455.66 199.719 1457.2 200.141 1459.08 200.141C1461.8 200.141 1464.56 199.344 1467.38 197.75C1470.28 196.156 1473.09 194.094 1475.81 191.562C1478.62 189.031 1481.34 186.172 1483.97 182.984C1486.59 179.797 1489.03 176.609 1491.28 173.422C1493.62 170.141 1495.73 167.047 1497.61 164.141C1499.48 161.141 1501.08 158.609 1502.39 156.547L1507.45 160.484C1505.86 163.484 1503.98 166.719 1501.83 170.188C1499.67 173.656 1497.28 177.172 1494.66 180.734C1492.12 184.203 1489.36 187.578 1486.36 190.859C1483.36 194.141 1480.17 197.047 1476.8 199.578C1473.52 202.109 1470.05 204.125 1466.39 205.625C1462.73 207.125 1458.98 207.875 1455.14 207.875C1449.52 207.875 1445.39 206.188 1442.77 202.812C1440.14 199.438 1438.83 195.078 1438.83 189.734C1438.83 189.359 1438.83 188.562 1438.83 187.344C1438.92 186.031 1439.06 185 1439.25 184.25C1434.56 190.156 1430.06 195.031 1425.75 198.875C1421.53 202.719 1417.41 205.766 1413.38 208.016C1409.44 210.266 1405.59 211.812 1401.84 212.656C1398.19 213.594 1394.67 214.062 1391.3 214.062C1387.73 214.062 1384.36 213.453 1381.17 212.234C1378.08 211.109 1375.36 209.422 1373.02 207.172C1370.58 204.922 1368.7 202.156 1367.39 198.875C1365.98 195.594 1365.28 191.797 1365.28 187.484C1365.28 182.141 1366.5 176.047 1368.94 169.203C1371.28 162.266 1375.5 154.812 1381.59 146.844C1386.75 140 1392.09 134.234 1397.62 129.547C1403.25 124.859 1408.73 121.109 1414.08 118.297C1419.52 115.391 1424.67 113.328 1429.55 112.109C1434.42 110.891 1438.78 110.281 1442.62 110.281C1451.25 110.281 1457.77 111.734 1462.17 114.641C1466.58 117.453 1469.25 121.812 1470.19 127.719C1472.06 125.375 1474.03 123.031 1476.09 120.688C1478.16 118.344 1480.27 115.953 1482.42 113.516L1486.92 115.484ZM1443.75 168.922C1444.97 166.953 1446.47 164.469 1448.25 161.469C1450.03 158.375 1451.91 155.234 1453.88 152.047C1455.84 148.766 1457.77 145.625 1459.64 142.625C1461.52 139.625 1463.16 137.094 1464.56 135.031C1464.56 134.188 1464.42 132.828 1464.14 130.953C1463.95 129.078 1463.34 127.203 1462.31 125.328C1461.28 123.359 1459.64 121.672 1457.39 120.266C1455.14 118.859 1452 118.156 1447.97 118.156C1445.06 118.156 1441.78 118.625 1438.12 119.562C1434.56 120.406 1430.72 121.906 1426.59 124.062C1422.56 126.125 1418.39 128.891 1414.08 132.359C1409.77 135.828 1405.45 140.141 1401.14 145.297C1394.67 153.078 1389.66 160.906 1386.09 168.781C1382.62 176.562 1380.89 183.594 1380.89 189.875C1380.89 195.219 1382.11 199.344 1384.55 202.25C1386.98 205.156 1390.45 206.609 1394.95 206.609C1400.11 206.609 1404.94 205.484 1409.44 203.234C1413.94 200.891 1418.16 197.891 1422.09 194.234C1426.03 190.578 1429.78 186.547 1433.34 182.141C1436.91 177.641 1440.38 173.234 1443.75 168.922Z"/>
<path d="M1541.62 205.906C1542.19 206.938 1543.03 208.531 1544.16 210.688C1545.28 212.938 1546.12 215.562 1546.69 218.562C1552.5 214.906 1558.17 211.016 1563.7 206.891C1569.33 202.672 1574.77 198.078 1580.02 193.109C1585.27 188.047 1590.33 182.516 1595.2 176.516C1600.17 170.516 1604.91 163.859 1609.41 156.547L1614.47 160.484C1609.69 168.359 1604.72 175.484 1599.56 181.859C1594.41 188.141 1589.02 193.906 1583.39 199.156C1577.86 204.406 1572.05 209.234 1565.95 213.641C1559.95 218.141 1553.67 222.406 1547.11 226.438C1546.73 235.156 1544.81 243.922 1541.34 252.734C1537.88 261.641 1533.42 270.219 1527.98 278.469C1522.64 286.719 1516.55 294.406 1509.7 301.531C1502.95 308.75 1496.11 315.031 1489.17 320.375C1482.14 325.719 1475.34 329.938 1468.78 333.031C1462.12 336.125 1456.27 337.672 1451.2 337.672C1447.55 337.672 1444.5 337.016 1442.06 335.703C1439.53 334.484 1437.52 332.891 1436.02 330.922C1434.52 328.953 1433.44 326.797 1432.78 324.453C1432.12 322.109 1431.8 319.859 1431.8 317.703C1431.8 312.266 1433.48 306.406 1436.86 300.125C1440.23 293.938 1445.25 287.469 1451.91 280.719C1458.47 274.062 1466.62 267.266 1476.38 260.328C1486.12 253.391 1497.33 246.5 1509.98 239.656C1514.39 237.219 1518.75 234.828 1523.06 232.484C1527.38 230.141 1531.69 227.703 1536 225.172C1536 224.703 1536 224.188 1536 223.625C1536.09 223.156 1536.14 222.688 1536.14 222.219C1536.14 219.406 1535.91 216.969 1535.44 214.906C1535.06 212.938 1534.5 211.25 1533.75 209.844C1528.59 211.906 1524.23 212.938 1520.67 212.938C1517.2 212.938 1514.3 212.094 1511.95 210.406C1509.61 208.812 1508.44 206.609 1508.44 203.797C1508.44 200.797 1509.75 198.5 1512.38 196.906C1515 195.219 1518.14 194.375 1521.8 194.375C1526.67 194.375 1531.22 195.969 1535.44 199.156C1539.75 195.781 1543.92 191.469 1547.95 186.219C1551.98 180.875 1555.55 175.156 1558.64 169.062C1561.73 162.875 1564.22 156.594 1566.09 150.219C1567.97 143.75 1568.91 137.703 1568.91 132.078C1568.91 128.984 1568.48 126.359 1567.64 124.203C1566.89 122.047 1565.86 120.312 1564.55 119C1563.23 117.594 1561.73 116.562 1560.05 115.906C1558.36 115.25 1556.58 114.922 1554.7 114.922C1550.86 114.922 1547.16 115.859 1543.59 117.734C1540.12 119.609 1536.84 122.047 1533.75 125.047C1530.66 127.953 1527.75 131.188 1525.03 134.75C1522.41 138.312 1519.97 141.781 1517.72 145.156C1515.56 148.531 1513.64 151.625 1511.95 154.438C1510.27 157.156 1508.86 159.172 1507.73 160.484L1502.53 156.547C1503.66 155.047 1505.06 152.844 1506.75 149.938C1508.53 146.938 1510.59 143.609 1512.94 139.953C1515.28 136.297 1517.91 132.547 1520.81 128.703C1523.72 124.859 1526.91 121.391 1530.38 118.297C1533.84 115.109 1537.59 112.531 1541.62 110.562C1545.75 108.5 1550.11 107.469 1554.7 107.469C1559.11 107.469 1563.05 108.219 1566.52 109.719C1570.08 111.125 1573.08 113.141 1575.52 115.766C1578.05 118.297 1579.97 121.391 1581.28 125.047C1582.69 128.703 1583.39 132.781 1583.39 137.281C1583.39 143.844 1582.27 150.453 1580.02 157.109C1577.77 163.766 1574.72 170.141 1570.88 176.234C1567.12 182.234 1562.72 187.812 1557.66 192.969C1552.59 198.031 1547.25 202.344 1541.62 205.906ZM1505.91 282.688C1508.81 279.031 1511.72 275.188 1514.62 271.156C1517.53 267.125 1520.25 263 1522.78 258.781C1525.31 254.656 1527.56 250.484 1529.53 246.266C1531.59 242.141 1533.19 238.109 1534.31 234.172L1513.64 245.844C1501.64 252.5 1491.47 258.734 1483.12 264.547C1474.69 270.453 1467.75 275.891 1462.31 280.859C1456.78 285.922 1452.47 290.469 1449.38 294.5C1446.28 298.531 1443.98 302.094 1442.48 305.188C1440.89 308.281 1439.95 310.812 1439.67 312.781C1439.3 314.844 1439.11 316.344 1439.11 317.281C1439.11 318.594 1439.25 319.906 1439.53 321.219C1439.81 322.625 1440.38 323.844 1441.22 324.875C1441.97 325.906 1443 326.75 1444.31 327.406C1445.62 328.062 1447.36 328.391 1449.52 328.391C1451.86 328.391 1454.77 327.734 1458.23 326.422C1461.61 325.109 1465.59 322.719 1470.19 319.25C1474.78 315.875 1480.03 311.234 1485.94 305.328C1491.84 299.422 1498.5 291.875 1505.91 282.688ZM1529.67 203.375C1528.36 202.531 1526.95 201.922 1525.45 201.547C1523.95 201.078 1522.69 200.844 1521.66 200.844C1517.62 200.844 1515.61 201.734 1515.61 203.516C1515.61 205.297 1517.34 206.188 1520.81 206.188C1521.75 206.188 1523.11 206 1524.89 205.625C1526.67 205.156 1528.27 204.406 1529.67 203.375Z"/>
<path d="M1672.55 84.2656C1672.55 86.1406 1672.08 88.1094 1671.14 90.1719C1670.2 92.1406 1668.98 93.9219 1667.48 95.5156C1666.08 97.1094 1664.48 98.4219 1662.7 99.4531C1660.92 100.484 1659.14 101 1657.36 101C1655.77 101 1654.55 100.438 1653.7 99.3125C1652.86 98.0938 1652.44 96.6406 1652.44 94.9531C1652.44 93.4531 1652.72 91.6719 1653.28 89.6094C1653.84 87.5469 1654.69 85.625 1655.81 83.8438C1656.94 81.9688 1658.3 80.375 1659.89 79.0625C1661.48 77.75 1663.31 77.0938 1665.38 77.0938C1667.34 77.0938 1669.03 77.8438 1670.44 79.3438C1671.84 80.8438 1672.55 82.4844 1672.55 84.2656ZM1646.25 115.484C1645.03 117.922 1643.3 121.156 1641.05 125.188C1638.89 129.125 1636.55 133.484 1634.02 138.266C1631.48 142.953 1628.91 147.922 1626.28 153.172C1623.66 158.328 1621.27 163.391 1619.11 168.359C1617.05 173.234 1615.36 177.828 1614.05 182.141C1612.73 186.453 1612.08 190.109 1612.08 193.109C1612.08 195.828 1612.64 197.703 1613.77 198.734C1614.89 199.672 1616.48 200.141 1618.55 200.141C1622.39 200.141 1626.14 198.875 1629.8 196.344C1633.45 193.812 1637.06 190.531 1640.62 186.5C1644.28 182.375 1647.84 177.688 1651.31 172.438C1654.78 167.188 1658.25 161.891 1661.72 156.547L1666.78 160.484C1664.06 165.359 1660.97 170.562 1657.5 176.094C1654.12 181.625 1650.33 186.781 1646.11 191.562C1641.89 196.25 1637.25 200.141 1632.19 203.234C1627.12 206.328 1621.59 207.875 1615.59 207.875C1609.97 207.875 1605.66 206.188 1602.66 202.812C1599.66 199.438 1598.16 195.078 1598.16 189.734C1598.16 183.453 1599.61 176.891 1602.52 170.047C1605.42 163.203 1609.03 156.453 1613.34 149.797C1617.75 143.047 1622.48 136.578 1627.55 130.391C1632.7 124.203 1637.44 118.578 1641.75 113.516L1646.25 115.484Z"/>
<path d="M1779.14 136.016C1779.14 140.047 1778.44 144.172 1777.03 148.391C1775.62 152.516 1773.84 156.688 1771.69 160.906C1769.53 165.031 1767.23 169.109 1764.8 173.141C1762.36 177.172 1760.06 181.062 1757.91 184.812C1755.75 188.562 1753.97 192.172 1752.56 195.641C1751.16 199.016 1750.45 202.109 1750.45 204.922C1750.45 207.078 1750.92 208.531 1751.86 209.281C1752.8 210.031 1753.83 210.406 1754.95 210.406C1758.52 210.406 1762.5 208.672 1766.91 205.203C1771.31 201.641 1775.77 197.188 1780.27 191.844C1784.86 186.5 1789.41 180.688 1793.91 174.406C1798.41 168.125 1802.48 162.172 1806.14 156.547L1811.2 160.484C1810.45 161.609 1809.09 163.859 1807.12 167.234C1805.16 170.516 1802.72 174.312 1799.81 178.625C1796.91 182.844 1793.62 187.297 1789.97 191.984C1786.41 196.578 1782.56 200.844 1778.44 204.781C1774.31 208.625 1770.05 211.812 1765.64 214.344C1761.33 216.875 1756.97 218.141 1752.56 218.141C1750.03 218.141 1747.73 217.719 1745.67 216.875C1743.61 216.031 1741.83 214.859 1740.33 213.359C1738.92 211.859 1737.8 210.125 1736.95 208.156C1736.11 206.094 1735.69 203.938 1735.69 201.688C1735.69 198.031 1736.48 194.094 1738.08 189.875C1739.77 185.562 1741.83 181.156 1744.27 176.656C1746.7 172.156 1749.38 167.656 1752.28 163.156C1755.19 158.562 1757.86 154.203 1760.3 150.078C1762.73 145.953 1764.75 142.156 1766.34 138.688C1768.03 135.125 1768.88 132.078 1768.88 129.547C1768.88 126.641 1768.08 124.203 1766.48 122.234C1764.98 120.266 1762.83 119.281 1760.02 119.281C1757.02 119.281 1753.55 120.547 1749.61 123.078C1745.67 125.516 1741.27 129.125 1736.39 133.906C1731.52 138.688 1726.17 144.594 1720.36 151.625C1714.64 158.562 1708.41 166.484 1701.66 175.391C1697.81 180.547 1694.06 185.516 1690.41 190.297C1688.81 192.359 1687.22 194.469 1685.62 196.625C1684.03 198.781 1682.44 200.938 1680.84 203.094C1679.25 205.156 1677.75 207.125 1676.34 209C1674.94 210.969 1673.67 212.656 1672.55 214.062L1660.17 209L1676.62 186.359C1678.97 183.172 1681.36 179.75 1683.8 176.094C1686.23 172.438 1688.62 168.688 1690.97 164.844C1693.41 160.906 1695.7 156.969 1697.86 153.031C1700.02 149.094 1702.03 145.25 1703.91 141.5C1706.62 135.875 1708.5 131.234 1709.53 127.578C1710.56 123.828 1711.08 120.828 1711.08 118.578C1711.08 116.047 1710.61 114.406 1709.67 113.656C1708.73 112.812 1707.42 112.391 1705.73 112.391C1703.95 112.391 1701.89 113.328 1699.55 115.203C1697.3 116.984 1694.95 119.328 1692.52 122.234C1690.08 125.047 1687.59 128.281 1685.06 131.938C1682.62 135.5 1680.28 139.062 1678.03 142.625C1675.78 146.188 1673.67 149.562 1671.7 152.75C1669.73 155.938 1668.09 158.516 1666.78 160.484L1661.72 156.547C1666.5 149.047 1670.81 142.203 1674.66 136.016C1678.59 129.734 1682.34 124.344 1685.91 119.844C1689.56 115.344 1693.08 111.875 1696.45 109.438C1699.92 106.906 1703.58 105.641 1707.42 105.641C1709.48 105.641 1711.45 106.062 1713.33 106.906C1715.3 107.75 1716.98 109.016 1718.39 110.703C1719.89 112.297 1721.06 114.266 1721.91 116.609C1722.75 118.953 1723.17 121.672 1723.17 124.766C1723.17 127.203 1722.89 129.734 1722.33 132.359C1726.45 128.328 1730.3 125 1733.86 122.375C1737.42 119.75 1740.7 117.688 1743.7 116.188C1746.7 114.594 1749.47 113.469 1752 112.812C1754.53 112.156 1756.83 111.828 1758.89 111.828C1760.67 111.828 1762.73 112.156 1765.08 112.812C1767.42 113.469 1769.62 114.688 1771.69 116.469C1773.75 118.25 1775.48 120.734 1776.89 123.922C1778.39 127.016 1779.14 131.047 1779.14 136.016Z"/>
<path d="M1816.97 176.938C1816.78 178.062 1816.64 179.188 1816.55 180.312C1816.45 181.438 1816.41 182.562 1816.41 183.688C1816.41 187.062 1816.88 190.297 1817.81 193.391C1818.84 196.391 1820.3 199.062 1822.17 201.406C1824.14 203.656 1826.53 205.438 1829.34 206.75C1832.25 208.062 1835.53 208.719 1839.19 208.719C1851.47 208.719 1863.33 204.547 1874.77 196.203C1886.2 187.859 1897.59 174.641 1908.94 156.547L1913.72 160.766C1907.53 171.078 1901.25 179.797 1894.88 186.922C1888.5 193.953 1882.12 199.672 1875.75 204.078C1869.47 208.484 1863.28 211.672 1857.19 213.641C1851.09 215.609 1845.28 216.594 1839.75 216.594C1835.72 216.594 1831.45 216.031 1826.95 214.906C1822.45 213.781 1818.28 211.906 1814.44 209.281C1810.69 206.656 1807.59 203.141 1805.16 198.734C1802.62 194.328 1801.36 188.844 1801.36 182.281C1801.36 175.25 1802.58 168.5 1805.02 162.031C1807.36 155.469 1810.45 149.375 1814.3 143.75C1818.14 138.125 1822.55 133.016 1827.52 128.422C1832.48 123.734 1837.5 119.75 1842.56 116.469C1847.72 113.188 1852.73 110.656 1857.61 108.875C1862.48 107 1866.8 106.062 1870.55 106.062C1872.98 106.062 1875.47 106.438 1878 107.188C1880.53 107.938 1882.78 109.109 1884.75 110.703C1886.81 112.297 1888.45 114.406 1889.67 117.031C1890.98 119.656 1891.64 122.797 1891.64 126.453C1891.64 131.422 1890.47 136.109 1888.12 140.516C1885.88 144.828 1882.83 148.859 1878.98 152.609C1875.14 156.266 1870.69 159.594 1865.62 162.594C1860.56 165.5 1855.27 167.984 1849.73 170.047C1844.2 172.109 1838.62 173.75 1833 174.969C1827.38 176.188 1822.03 176.844 1816.97 176.938ZM1818.09 170.891C1824.38 170.234 1830.28 168.922 1835.81 166.953C1841.34 164.984 1846.41 162.594 1851 159.781C1855.59 156.875 1859.67 153.734 1863.23 150.359C1866.89 146.984 1869.94 143.562 1872.38 140.094C1874.81 136.625 1876.69 133.297 1878 130.109C1879.31 126.922 1879.97 124.062 1879.97 121.531C1879.97 119 1879.27 116.984 1877.86 115.484C1876.55 113.984 1874.95 113.234 1873.08 113.234C1868.95 113.234 1864.31 114.734 1859.16 117.734C1854 120.641 1848.84 124.719 1843.69 129.969C1838.53 135.125 1833.66 141.219 1829.06 148.25C1824.56 155.281 1820.91 162.828 1818.09 170.891Z"/>
</mask>
<path d="M217.781 6.78125C213.094 11.75 208.734 16.9531 204.703 22.3906C213.516 27.2656 221.344 33.125 228.188 39.9688C235.125 46.7188 240.938 54.1719 245.625 62.3281C250.406 70.4844 254.016 79.25 256.453 88.625C258.984 97.9062 260.25 107.516 260.25 117.453C260.25 126.266 259.359 135.031 257.578 143.75C255.891 152.469 253.172 160.812 249.422 168.781C245.766 176.656 241.078 184.016 235.359 190.859C229.641 197.609 222.797 203.516 214.828 208.578C206.859 213.547 197.766 217.438 187.547 220.25C177.328 223.156 165.844 224.609 153.094 224.609C141.75 224.609 130.969 223.531 120.75 221.375C110.531 219.312 100.734 217.016 91.3594 214.484C84.1406 219.359 76.2188 223.156 67.5938 225.875C59.0625 228.594 49.4062 229.953 38.625 229.953C34.2188 229.953 30.4219 229.531 27.2344 228.688C24.0469 227.938 21.4219 226.859 19.3594 225.453C17.3906 224.047 15.8906 222.406 14.8594 220.531C13.9219 218.75 13.4531 216.875 13.4531 214.906C13.4531 212.562 14.0156 210.359 15.1406 208.297C16.3594 206.141 18.1406 204.266 20.4844 202.672C22.9219 201.078 25.9688 199.812 29.625 198.875C33.375 197.938 37.7344 197.469 42.7031 197.469C49.5469 197.469 56.3438 198.219 63.0938 199.719C69.9375 201.125 76.875 202.766 83.9062 204.641C90.75 198.453 96.9844 191.047 102.609 182.422C108.328 173.703 113.766 164.234 118.922 154.016C124.172 143.703 129.281 132.922 134.25 121.672C139.312 110.422 144.656 99.125 150.281 87.7812C156 76.4375 162.141 65.3281 168.703 54.4531C175.359 43.5781 182.812 33.3594 191.062 23.7969C184.031 20.7969 176.391 18.5 168.141 16.9062C159.984 15.2188 151.219 14.375 141.844 14.375C130.406 14.375 119.391 15.5469 108.797 17.8906C98.2031 20.2344 88.3125 23.4688 79.125 27.5938C69.9375 31.7188 61.5469 36.5469 53.9531 42.0781C46.3594 47.6094 39.8438 53.6094 34.4062 60.0781C29.0625 66.4531 24.8906 73.1562 21.8906 80.1875C18.9844 87.125 17.5312 94.0625 17.5312 101C17.5312 105.5 18.4219 109.766 20.2031 113.797C21.9844 117.828 24.4219 121.391 27.5156 124.484C30.6094 127.484 34.2656 129.875 38.4844 131.656C42.7031 133.438 47.2969 134.328 52.2656 134.328C56.1094 134.328 59.9062 133.906 63.6562 133.062C67.5 132.125 71.1562 131 74.625 129.688C78.0938 128.375 81.3281 126.969 84.3281 125.469C87.3281 123.875 89.9531 122.422 92.2031 121.109C94.4531 119.703 96.1875 118.578 97.4062 117.734C98.7188 116.797 99.4219 116.281 99.5156 116.188L104.016 122.094C99.6094 125 95.0156 127.812 90.2344 130.531C85.5469 133.156 80.6719 135.547 75.6094 137.703C70.5469 139.766 65.2969 141.453 59.8594 142.766C54.4219 143.984 48.8906 144.594 43.2656 144.594C37.6406 144.594 32.2969 143.656 27.2344 141.781C22.1719 139.812 17.7188 137.094 13.875 133.625C10.125 130.062 7.125 125.844 4.875 120.969C2.625 116.094 1.5 110.703 1.5 104.797C1.5 98.0469 3 90.9688 6 83.5625C9.09375 76.1562 13.4531 68.8438 19.0781 61.625C24.7969 54.3125 31.7812 47.375 40.0312 40.8125C48.2812 34.25 57.5625 28.4844 67.875 23.5156C78.2812 18.4531 89.6719 14.4688 102.047 11.5625C114.516 8.5625 127.781 7.0625 141.844 7.0625C152.062 7.0625 161.672 8.04688 170.672 10.0156C179.766 11.8906 188.25 14.6094 196.125 18.1719C201.469 12.4531 207.234 7.10938 213.422 2.14062L217.781 6.78125ZM244.922 107.891C244.922 99.1719 243.938 90.875 241.969 83C240 75.125 237.094 67.8125 233.25 61.0625C229.5 54.3125 224.859 48.1719 219.328 42.6406C213.797 37.1094 207.469 32.375 200.344 28.4375C193.5 38.2812 187.266 48.6875 181.641 59.6562C176.016 70.625 170.719 81.7344 165.75 92.9844C160.781 104.234 155.906 115.391 151.125 126.453C146.344 137.516 141.328 148.109 136.078 158.234C130.922 168.266 125.297 177.641 119.203 186.359C113.109 194.984 106.266 202.484 98.6719 208.859C106.172 210.922 113.672 212.703 121.172 214.203C128.672 215.797 136.406 216.594 144.375 216.594C160.875 216.594 175.406 213.781 187.969 208.156C200.531 202.438 211.031 194.703 219.469 184.953C227.906 175.109 234.234 163.578 238.453 150.359C242.766 137.141 244.922 122.984 244.922 107.891ZM38.0625 222.641C45.6562 222.641 52.5938 221.562 58.875 219.406C65.25 217.344 71.1562 214.344 76.5938 210.406C70.4062 208.812 64.5 207.5 58.875 206.469C53.25 205.344 47.8594 204.781 42.7031 204.781C35.3906 204.781 29.9062 205.766 26.25 207.734C22.6875 209.609 20.9062 211.906 20.9062 214.625C20.9062 216.781 22.1719 218.656 24.7031 220.25C27.3281 221.844 31.7812 222.641 38.0625 222.641Z" stroke="black" stroke-width="2" mask="url(#path-1-outside-1_59_17)"/>
<path d="M386.109 115.484C384.891 117.922 383.156 121.109 380.906 125.047C378.75 128.984 376.406 133.344 373.875 138.125C371.344 142.812 368.766 147.734 366.141 152.891C363.609 158.047 361.266 163.109 359.109 168.078C357.047 172.953 355.312 177.594 353.906 182C352.594 186.312 351.938 189.969 351.938 192.969C351.938 195.969 352.5 197.938 353.625 198.875C354.844 199.719 356.391 200.141 358.266 200.141C360.984 200.141 363.75 199.344 366.562 197.75C369.469 196.156 372.281 194.094 375 191.562C377.812 189.031 380.531 186.172 383.156 182.984C385.781 179.797 388.219 176.609 390.469 173.422C392.812 170.141 394.922 167.047 396.797 164.141C398.672 161.141 400.266 158.609 401.578 156.547L406.641 160.484C405.047 163.484 403.172 166.719 401.016 170.188C398.859 173.656 396.469 177.172 393.844 180.734C391.312 184.203 388.547 187.578 385.547 190.859C382.547 194.141 379.359 197.047 375.984 199.578C372.703 202.109 369.234 204.125 365.578 205.625C361.922 207.125 358.172 207.875 354.328 207.875C348.703 207.875 344.578 206.188 341.953 202.812C339.328 199.438 338.016 195.078 338.016 189.734C338.016 189.359 338.016 188.562 338.016 187.344C338.109 186.031 338.25 185 338.438 184.25C333.75 190.156 329.25 195.031 324.938 198.875C320.719 202.719 316.594 205.766 312.562 208.016C308.625 210.266 304.781 211.812 301.031 212.656C297.375 213.594 293.859 214.062 290.484 214.062C286.922 214.062 283.547 213.453 280.359 212.234C277.266 211.109 274.547 209.422 272.203 207.172C269.766 204.922 267.891 202.156 266.578 198.875C265.172 195.594 264.469 191.797 264.469 187.484C264.469 182.141 265.688 176.047 268.125 169.203C270.469 162.266 274.688 154.812 280.781 146.844C285.938 140 291.281 134.234 296.812 129.547C302.438 124.859 307.922 121.109 313.266 118.297C318.703 115.391 323.859 113.328 328.734 112.109C333.609 110.891 337.969 110.281 341.812 110.281C350.438 110.281 356.953 111.734 361.359 114.641C365.766 117.453 368.438 121.812 369.375 127.719C371.25 125.375 373.219 123.031 375.281 120.688C377.344 118.344 379.453 115.953 381.609 113.516L386.109 115.484ZM342.938 168.922C344.156 166.953 345.656 164.469 347.438 161.469C349.219 158.375 351.094 155.234 353.062 152.047C355.031 148.766 356.953 145.625 358.828 142.625C360.703 139.625 362.344 137.094 363.75 135.031C363.75 134.188 363.609 132.828 363.328 130.953C363.141 129.078 362.531 127.203 361.5 125.328C360.469 123.359 358.828 121.672 356.578 120.266C354.328 118.859 351.188 118.156 347.156 118.156C344.25 118.156 340.969 118.625 337.312 119.562C333.75 120.406 329.906 121.906 325.781 124.062C321.75 126.125 317.578 128.891 313.266 132.359C308.953 135.828 304.641 140.141 300.328 145.297C293.859 153.078 288.844 160.906 285.281 168.781C281.812 176.562 280.078 183.594 280.078 189.875C280.078 195.219 281.297 199.344 283.734 202.25C286.172 205.156 289.641 206.609 294.141 206.609C299.297 206.609 304.125 205.484 308.625 203.234C313.125 200.891 317.344 197.891 321.281 194.234C325.219 190.578 328.969 186.547 332.531 182.141C336.094 177.641 339.562 173.234 342.938 168.922Z" stroke="black" stroke-width="2" mask="url(#path-1-outside-1_59_17)"/>
<path d="M476.109 155.141C474.609 151.859 473.438 148.438 472.594 144.875C471.844 141.312 471.469 137.609 471.469 133.766C471.469 128.797 471.891 124.625 472.734 121.25C473.672 117.781 474.797 115.016 476.109 112.953C477.422 110.797 478.828 109.25 480.328 108.312C481.922 107.375 483.422 106.906 484.828 106.906C486.047 106.906 487.172 107.188 488.203 107.75C489.328 108.219 490.312 109.062 491.156 110.281C492 111.5 492.656 113.094 493.125 115.062C493.688 117.031 493.969 119.469 493.969 122.375C493.969 129.125 492.609 136.062 489.891 143.188C487.266 150.312 483.703 157.203 479.203 163.859C474.797 170.516 469.688 176.797 463.875 182.703C458.062 188.609 452.062 193.812 445.875 198.312C444.188 199.531 442.219 200.844 439.969 202.25C437.812 203.562 435.469 204.828 432.938 206.047C430.5 207.172 427.922 208.156 425.203 209C422.578 209.75 420 210.125 417.469 210.125C411.188 210.125 406.031 207.781 402 203.094C398.062 198.312 396.094 191.656 396.094 183.125C396.094 179.188 396.656 174.969 397.781 170.469C398.906 165.969 400.453 161.375 402.422 156.688C404.391 151.906 406.688 147.125 409.312 142.344C411.938 137.562 414.703 133.016 417.609 128.703C420.609 124.297 423.703 120.172 426.891 116.328C430.078 112.484 433.219 109.109 436.312 106.203L442.5 110.281C437.062 118.531 432.375 126.547 428.438 134.328C424.5 142.016 421.219 149.281 418.594 156.125C416.062 162.969 414.141 169.25 412.828 174.969C411.609 180.594 411 185.469 411 189.594C411 194.375 411.609 197.797 412.828 199.859C414.141 201.828 415.969 202.812 418.312 202.812C420.562 202.812 423.656 202.016 427.594 200.422C431.625 198.734 436.266 196.062 441.516 192.406C448.172 187.719 454.5 182.188 460.5 175.812C466.594 169.344 471.797 162.453 476.109 155.141ZM480.609 148.109C482.484 143.891 483.938 139.531 484.969 135.031C486.094 130.438 486.656 126.125 486.656 122.094C486.656 119.281 486.422 117.266 485.953 116.047C485.484 114.828 485.109 114.125 484.828 113.938C484.734 113.938 484.359 114.219 483.703 114.781C483.047 115.344 482.297 116.375 481.453 117.875C480.703 119.281 480 121.297 479.344 123.922C478.781 126.453 478.5 129.734 478.5 133.766C478.5 136.109 478.641 138.594 478.922 141.219C479.297 143.844 479.859 146.141 480.609 148.109Z" stroke="black" stroke-width="2" mask="url(#path-1-outside-1_59_17)"/>
<path d="M565.547 84.2656C565.547 86.1406 565.078 88.1094 564.141 90.1719C563.203 92.1406 561.984 93.9219 560.484 95.5156C559.078 97.1094 557.484 98.4219 555.703 99.4531C553.922 100.484 552.141 101 550.359 101C548.766 101 547.547 100.438 546.703 99.3125C545.859 98.0938 545.438 96.6406 545.438 94.9531C545.438 93.4531 545.719 91.6719 546.281 89.6094C546.844 87.5469 547.688 85.625 548.812 83.8438C549.938 81.9688 551.297 80.375 552.891 79.0625C554.484 77.75 556.312 77.0938 558.375 77.0938C560.344 77.0938 562.031 77.8438 563.438 79.3438C564.844 80.8438 565.547 82.4844 565.547 84.2656ZM539.25 115.484C538.031 117.922 536.297 121.156 534.047 125.188C531.891 129.125 529.547 133.484 527.016 138.266C524.484 142.953 521.906 147.922 519.281 153.172C516.656 158.328 514.266 163.391 512.109 168.359C510.047 173.234 508.359 177.828 507.047 182.141C505.734 186.453 505.078 190.109 505.078 193.109C505.078 195.828 505.641 197.703 506.766 198.734C507.891 199.672 509.484 200.141 511.547 200.141C515.391 200.141 519.141 198.875 522.797 196.344C526.453 193.812 530.062 190.531 533.625 186.5C537.281 182.375 540.844 177.688 544.312 172.438C547.781 167.188 551.25 161.891 554.719 156.547L559.781 160.484C557.062 165.359 553.969 170.562 550.5 176.094C547.125 181.625 543.328 186.781 539.109 191.562C534.891 196.25 530.25 200.141 525.188 203.234C520.125 206.328 514.594 207.875 508.594 207.875C502.969 207.875 498.656 206.188 495.656 202.812C492.656 199.438 491.156 195.078 491.156 189.734C491.156 183.453 492.609 176.891 495.516 170.047C498.422 163.203 502.031 156.453 506.344 149.797C510.75 143.047 515.484 136.578 520.547 130.391C525.703 124.203 530.438 118.578 534.75 113.516L539.25 115.484Z" stroke="black" stroke-width="2" mask="url(#path-1-outside-1_59_17)"/>
<path d="M711.516 24.2188C710.484 25.7188 708.797 28.2031 706.453 31.6719C704.109 35.1406 701.391 39.2656 698.297 44.0469C695.203 48.8281 691.828 54.125 688.172 59.9375C684.609 65.75 681 71.75 677.344 77.9375C673.781 84.125 670.266 90.4062 666.797 96.7812C663.422 103.062 660.422 109.109 657.797 114.922C653.672 123.922 650.25 131.984 647.531 139.109C644.906 146.141 642.797 152.422 641.203 157.953C639.703 163.484 638.625 168.312 637.969 172.438C637.406 176.469 637.125 179.938 637.125 182.844C637.125 188.188 637.922 191.891 639.516 193.953C641.203 196.016 643.453 197.047 646.266 197.047C649.172 197.047 651.938 196.297 654.562 194.797C657.281 193.297 659.859 191.375 662.297 189.031C664.828 186.688 667.172 184.016 669.328 181.016C671.578 178.016 673.641 175.016 675.516 172.016C677.484 169.016 679.266 166.156 680.859 163.438C682.453 160.719 683.859 158.422 685.078 156.547L690.141 160.484C689.109 162.172 687.797 164.422 686.203 167.234C684.703 169.953 682.969 172.953 681 176.234C679.031 179.516 676.781 182.844 674.25 186.219C671.719 189.5 668.906 192.5 665.812 195.219C662.812 197.938 659.438 200.188 655.688 201.969C652.031 203.656 648.047 204.5 643.734 204.5C641.672 204.5 639.469 204.219 637.125 203.656C634.875 203.094 632.766 202.109 630.797 200.703C628.828 199.297 627.094 197.375 625.594 194.938C624.094 192.406 623.109 189.219 622.641 185.375C615.609 192.969 608.766 198.734 602.109 202.672C595.453 206.516 589.172 208.438 583.266 208.438C580.266 208.438 576.938 207.922 573.281 206.891C569.719 205.859 566.344 204.078 563.156 201.547C559.969 199.016 557.297 195.688 555.141 191.562C552.984 187.344 551.906 182.141 551.906 175.953C551.906 169.016 552.984 162.406 555.141 156.125C557.297 149.844 560.203 144.031 563.859 138.688C567.516 133.25 571.688 128.375 576.375 124.062C581.156 119.656 586.125 115.953 591.281 112.953C596.438 109.859 601.594 107.469 606.75 105.781C612 104.094 616.922 103.25 621.516 103.25C627.609 103.25 632.391 104 635.859 105.5C639.328 107 641.953 108.5 643.734 110C645.047 107.375 646.828 104.047 649.078 100.016C651.328 95.8906 653.953 91.3438 656.953 86.375C659.953 81.3125 663.281 75.9688 666.938 70.3438C670.594 64.625 674.484 58.9062 678.609 53.1875C682.734 47.375 687.047 41.6562 691.547 36.0312C696.141 30.4062 700.781 25.1562 705.469 20.2812L711.516 24.2188ZM622.5 174.828C622.969 167.891 624.562 159.734 627.281 150.359C630.094 140.891 634.359 130.016 640.078 117.734C638.766 115.766 636.891 114.266 634.453 113.234C632.109 112.109 629.438 111.547 626.438 111.547C621.844 111.547 617.156 112.484 612.375 114.359C607.688 116.234 603.141 118.766 598.734 121.953C594.422 125.141 590.344 128.938 586.5 133.344C582.656 137.656 579.281 142.297 576.375 147.266C573.562 152.234 571.312 157.438 569.625 162.875C568.031 168.219 567.234 173.516 567.234 178.766C567.234 185.797 568.688 191.281 571.594 195.219C574.594 199.156 578.578 201.125 583.547 201.125C585.891 201.125 588.469 200.656 591.281 199.719C594.094 198.781 597.141 197.281 600.422 195.219C603.797 193.062 607.312 190.344 610.969 187.062C614.625 183.688 618.469 179.609 622.5 174.828Z" stroke="black" stroke-width="2" mask="url(#path-1-outside-1_59_17)"/>
<path d="M1141.55 257.516C1141.27 257.703 1140 258.359 1137.75 259.484C1135.5 260.609 1132.55 261.828 1128.89 263.141C1125.23 264.453 1121.06 265.625 1116.38 266.656C1111.69 267.781 1106.81 268.344 1101.75 268.344C1093.5 268.344 1086.09 266.891 1079.53 263.984C1072.97 261.078 1067.39 256.953 1062.8 251.609C1058.3 246.359 1054.83 239.984 1052.39 232.484C1049.95 225.078 1048.73 216.828 1048.73 207.734C1048.73 199.016 1049.81 189.453 1051.97 179.047C1054.12 168.547 1056.94 157.766 1060.41 146.703C1063.88 135.641 1067.77 124.578 1072.08 113.516C1076.48 102.453 1080.89 91.9531 1085.3 82.0156C1089.8 71.9844 1094.06 62.8438 1098.09 54.5938C1102.12 46.25 1105.59 39.3125 1108.5 33.7812C1103.25 39.7812 1097.25 46.7188 1090.5 54.5938C1083.75 62.375 1076.53 70.9531 1068.84 80.3281C1061.25 89.6094 1053.33 99.5469 1045.08 110.141C1036.83 120.641 1028.48 131.609 1020.05 143.047C1011.7 154.391 1003.41 166.062 995.156 178.062C986.906 189.969 979.031 201.969 971.531 214.062L964.781 211.812C966.188 196.531 968.484 181.391 971.672 166.391C974.953 151.297 978.609 136.812 982.641 122.938C986.766 108.969 991.078 95.8906 995.578 83.7031C1000.17 71.4219 1004.53 60.4531 1008.66 50.7969C1002.38 59.4219 996.094 68.7969 989.812 78.9219C983.625 88.9531 977.344 99.3125 970.969 110C964.594 120.594 958.031 131.281 951.281 142.062C944.531 152.75 937.5 163.062 930.188 173C922.875 182.844 915.141 192.078 906.984 200.703C898.922 209.234 890.297 216.641 881.109 222.922C872.016 229.297 862.266 234.312 851.859 237.969C841.547 241.625 830.484 243.453 818.672 243.453C809.578 243.453 801.328 242.094 793.922 239.375C786.516 236.656 780.141 232.906 774.797 228.125C769.547 223.438 765.516 217.906 762.703 211.531C759.797 205.156 758.344 198.266 758.344 190.859C758.344 183.641 759.516 177.125 761.859 171.312C764.109 165.406 767.156 160.203 771 155.703C774.844 151.109 779.297 147.172 784.359 143.891C789.516 140.516 794.906 137.75 800.531 135.594C806.156 133.438 811.828 131.844 817.547 130.812C823.359 129.781 828.891 129.266 834.141 129.266C845.016 129.266 855.422 130.578 865.359 133.203C875.297 135.734 884.859 140.281 894.047 146.844L889.125 152.328C889.031 152.234 887.812 151.391 885.469 149.797C883.125 148.109 879.75 146.281 875.344 144.312C870.938 142.344 865.453 140.562 858.891 138.969C852.422 137.375 845.016 136.578 836.672 136.578C828.609 136.578 820.781 137.656 813.188 139.812C805.688 141.969 799.031 145.25 793.219 149.656C787.5 153.969 782.906 159.453 779.438 166.109C775.969 172.672 774.234 180.406 774.234 189.312C774.234 195.688 775.453 201.594 777.891 207.031C780.422 212.469 783.891 217.156 788.297 221.094C792.703 225.125 798 228.266 804.188 230.516C810.375 232.766 817.219 233.891 824.719 233.891C835.969 233.891 846.75 231.5 857.062 226.719C867.375 221.938 877.312 215.469 886.875 207.312C896.438 199.156 905.625 189.641 914.438 178.766C923.344 167.891 931.875 156.406 940.031 144.312C948.281 132.219 956.25 119.797 963.938 107.047C971.625 94.2969 979.078 82.0156 986.297 70.2031C993.516 58.2969 1000.55 47.1875 1007.39 36.875C1014.23 26.4688 1020.94 17.5156 1027.5 10.0156L1033.83 13.8125C1029.7 26.375 1026.14 37.4375 1023.14 47C1020.14 56.4688 1017.52 64.8125 1015.27 72.0312C1013.11 79.25 1011.23 85.4844 1009.64 90.7344C1008.14 95.9844 1006.83 100.672 1005.7 104.797C1004.58 108.922 1003.55 112.672 1002.61 116.047C1001.77 119.328 1000.88 122.609 999.938 125.891C999.094 129.172 998.109 132.641 996.984 136.297C995.859 139.953 994.5 144.219 992.906 149.094C991.312 153.875 989.438 159.453 987.281 165.828C985.125 172.109 982.5 179.562 979.406 188.188C987.281 176.281 995.344 164.562 1003.59 153.031C1011.94 141.5 1020.23 130.344 1028.48 119.562C1036.73 108.781 1044.8 98.4688 1052.67 88.625C1060.64 78.7812 1068.14 69.6406 1075.17 61.2031C1082.3 52.7656 1088.81 45.125 1094.72 38.2812C1100.72 31.3438 1105.92 25.4375 1110.33 20.5625C1114.73 15.6875 1118.16 11.8906 1120.59 9.17188C1123.12 6.45312 1124.44 5.04688 1124.53 4.95312L1130.44 9.3125C1124.91 23 1119.42 36.7344 1113.98 50.5156C1108.55 64.2031 1103.3 77.5625 1098.23 90.5938C1093.27 103.625 1088.62 116.188 1084.31 128.281C1080 140.375 1076.25 151.719 1073.06 162.312C1069.88 172.812 1067.34 182.422 1065.47 191.141C1063.69 199.766 1062.8 207.172 1062.8 213.359C1062.8 220.672 1063.64 227.281 1065.33 233.188C1067.11 239.094 1069.64 244.109 1072.92 248.234C1076.2 252.359 1080.23 255.5 1085.02 257.656C1089.89 259.906 1095.38 261.031 1101.47 261.031C1106.06 261.031 1110.52 260.516 1114.83 259.484C1119.23 258.453 1123.12 257.328 1126.5 256.109C1129.88 254.891 1132.59 253.766 1134.66 252.734C1136.72 251.703 1137.8 251.188 1137.89 251.188L1141.55 257.516Z" stroke="black" stroke-width="2" mask="url(#path-1-outside-1_59_17)"/>
<path d="M1229.58 115.484C1228.36 117.922 1226.62 121.109 1224.38 125.047C1222.22 128.984 1219.88 133.344 1217.34 138.125C1214.81 142.812 1212.23 147.734 1209.61 152.891C1207.08 158.047 1204.73 163.109 1202.58 168.078C1200.52 172.953 1198.78 177.594 1197.38 182C1196.06 186.312 1195.41 189.969 1195.41 192.969C1195.41 195.969 1195.97 197.938 1197.09 198.875C1198.31 199.719 1199.86 200.141 1201.73 200.141C1204.45 200.141 1207.22 199.344 1210.03 197.75C1212.94 196.156 1215.75 194.094 1218.47 191.562C1221.28 189.031 1224 186.172 1226.62 182.984C1229.25 179.797 1231.69 176.609 1233.94 173.422C1236.28 170.141 1238.39 167.047 1240.27 164.141C1242.14 161.141 1243.73 158.609 1245.05 156.547L1250.11 160.484C1248.52 163.484 1246.64 166.719 1244.48 170.188C1242.33 173.656 1239.94 177.172 1237.31 180.734C1234.78 184.203 1232.02 187.578 1229.02 190.859C1226.02 194.141 1222.83 197.047 1219.45 199.578C1216.17 202.109 1212.7 204.125 1209.05 205.625C1205.39 207.125 1201.64 207.875 1197.8 207.875C1192.17 207.875 1188.05 206.188 1185.42 202.812C1182.8 199.438 1181.48 195.078 1181.48 189.734C1181.48 189.359 1181.48 188.562 1181.48 187.344C1181.58 186.031 1181.72 185 1181.91 184.25C1177.22 190.156 1172.72 195.031 1168.41 198.875C1164.19 202.719 1160.06 205.766 1156.03 208.016C1152.09 210.266 1148.25 211.812 1144.5 212.656C1140.84 213.594 1137.33 214.062 1133.95 214.062C1130.39 214.062 1127.02 213.453 1123.83 212.234C1120.73 211.109 1118.02 209.422 1115.67 207.172C1113.23 204.922 1111.36 202.156 1110.05 198.875C1108.64 195.594 1107.94 191.797 1107.94 187.484C1107.94 182.141 1109.16 176.047 1111.59 169.203C1113.94 162.266 1118.16 154.812 1124.25 146.844C1129.41 140 1134.75 134.234 1140.28 129.547C1145.91 124.859 1151.39 121.109 1156.73 118.297C1162.17 115.391 1167.33 113.328 1172.2 112.109C1177.08 110.891 1181.44 110.281 1185.28 110.281C1193.91 110.281 1200.42 111.734 1204.83 114.641C1209.23 117.453 1211.91 121.812 1212.84 127.719C1214.72 125.375 1216.69 123.031 1218.75 120.688C1220.81 118.344 1222.92 115.953 1225.08 113.516L1229.58 115.484ZM1186.41 168.922C1187.62 166.953 1189.12 164.469 1190.91 161.469C1192.69 158.375 1194.56 155.234 1196.53 152.047C1198.5 148.766 1200.42 145.625 1202.3 142.625C1204.17 139.625 1205.81 137.094 1207.22 135.031C1207.22 134.188 1207.08 132.828 1206.8 130.953C1206.61 129.078 1206 127.203 1204.97 125.328C1203.94 123.359 1202.3 121.672 1200.05 120.266C1197.8 118.859 1194.66 118.156 1190.62 118.156C1187.72 118.156 1184.44 118.625 1180.78 119.562C1177.22 120.406 1173.38 121.906 1169.25 124.062C1165.22 126.125 1161.05 128.891 1156.73 132.359C1152.42 135.828 1148.11 140.141 1143.8 145.297C1137.33 153.078 1132.31 160.906 1128.75 168.781C1125.28 176.562 1123.55 183.594 1123.55 189.875C1123.55 195.219 1124.77 199.344 1127.2 202.25C1129.64 205.156 1133.11 206.609 1137.61 206.609C1142.77 206.609 1147.59 205.484 1152.09 203.234C1156.59 200.891 1160.81 197.891 1164.75 194.234C1168.69 190.578 1172.44 186.547 1176 182.141C1179.56 177.641 1183.03 173.234 1186.41 168.922Z" stroke="black" stroke-width="2" mask="url(#path-1-outside-1_59_17)"/>
<path d="M1298.77 204.219C1293.89 207.5 1288.83 210.125 1283.58 212.094C1278.42 214.156 1273.45 215.188 1268.67 215.188C1265.11 215.188 1261.55 214.672 1257.98 213.641C1254.42 212.609 1251.19 210.922 1248.28 208.578C1245.38 206.141 1243.03 202.953 1241.25 199.016C1239.38 195.078 1238.44 190.203 1238.44 184.391C1238.44 177.359 1239.7 170.609 1242.23 164.141C1244.77 157.672 1248.14 151.672 1252.36 146.141C1256.58 140.516 1261.41 135.406 1266.84 130.812C1272.28 126.219 1277.86 122.328 1283.58 119.141C1289.39 115.859 1295.16 113.328 1300.88 111.547C1306.59 109.766 1311.8 108.875 1316.48 108.875C1321.08 108.875 1324.97 109.391 1328.16 110.422C1331.44 111.359 1334.2 112.578 1336.45 114.078C1338.7 115.484 1340.48 117.031 1341.8 118.719C1343.11 120.406 1344.19 122 1345.03 123.5L1352.62 113.516L1357.27 116.609C1357.27 116.703 1356.52 118.203 1355.02 121.109C1353.52 123.922 1351.55 127.719 1349.11 132.5C1346.67 137.281 1343.81 142.906 1340.53 149.375C1337.34 155.75 1333.97 162.547 1330.41 169.766C1326.94 176.984 1323.38 184.438 1319.72 192.125C1316.16 199.812 1312.73 207.359 1309.45 214.766C1317.98 209.891 1325.48 205.203 1331.95 200.703C1338.42 196.203 1344.19 191.656 1349.25 187.062C1354.41 182.469 1359.05 177.688 1363.17 172.719C1367.3 167.75 1371.28 162.359 1375.12 156.547L1380.33 160.484C1376.58 166.578 1372.5 172.25 1368.09 177.5C1363.78 182.656 1358.67 187.812 1352.77 192.969C1346.95 198.031 1340.11 203.281 1332.23 208.719C1324.45 214.062 1315.17 219.969 1304.39 226.438C1295.48 248.281 1286.91 266.328 1278.66 280.578C1270.41 294.922 1262.58 306.266 1255.17 314.609C1247.86 322.953 1241.06 328.812 1234.78 332.188C1228.41 335.562 1222.69 337.25 1217.62 337.25C1215.56 337.25 1213.36 336.969 1211.02 336.406C1208.58 335.938 1206.33 334.953 1204.27 333.453C1202.2 331.953 1200.52 329.891 1199.2 327.266C1197.8 324.641 1197.09 321.266 1197.09 317.141C1197.09 309.266 1199.2 301.484 1203.42 293.797C1207.55 286.109 1213.59 278.469 1221.56 270.875C1229.44 263.281 1239.09 255.734 1250.53 248.234C1262.06 240.734 1275.09 233.188 1289.62 225.594C1291.41 221.562 1293.05 217.719 1294.55 214.062C1296.05 210.5 1297.45 207.219 1298.77 204.219ZM1306.08 188.75C1308.61 183.969 1311.09 179.281 1313.53 174.688C1316.06 170 1318.64 165.359 1321.27 160.766C1323.98 156.078 1326.84 151.297 1329.84 146.422C1332.94 141.547 1336.36 136.484 1340.11 131.234C1339.92 129.828 1339.45 128.375 1338.7 126.875C1337.95 125.375 1336.92 124.016 1335.61 122.797C1334.3 121.484 1332.61 120.406 1330.55 119.562C1328.48 118.719 1326.05 118.297 1323.23 118.297C1320.05 118.297 1316.39 118.719 1312.27 119.562C1308.23 120.406 1303.97 121.859 1299.47 123.922C1294.97 125.984 1290.38 128.75 1285.69 132.219C1281.09 135.688 1276.59 140.047 1272.19 145.297C1265.72 152.984 1260.75 160.672 1257.28 168.359C1253.81 175.953 1252.08 182.891 1252.08 189.172C1252.08 195.266 1253.62 199.906 1256.72 203.094C1259.81 206.188 1264.03 207.734 1269.38 207.734C1275 207.734 1280.95 206 1287.23 202.531C1293.61 199.062 1299.89 194.469 1306.08 188.75ZM1217.62 330.078C1221.19 330.078 1224.89 328.766 1228.73 326.141C1232.58 323.516 1236.47 319.906 1240.41 315.312C1244.34 310.812 1248.23 305.562 1252.08 299.562C1255.92 293.562 1259.72 287.141 1263.47 280.297C1267.22 273.547 1270.78 266.609 1274.16 259.484C1277.62 252.359 1280.91 245.375 1284 238.531C1270.03 245.844 1258.08 253.438 1248.14 261.312C1238.3 269.281 1230.23 276.875 1223.95 284.094C1217.67 291.312 1213.12 297.828 1210.31 303.641C1207.41 309.453 1205.95 313.906 1205.95 317C1205.95 320.844 1206.8 323.984 1208.48 326.422C1210.17 328.859 1213.22 330.078 1217.62 330.078Z" stroke="black" stroke-width="2" mask="url(#path-1-outside-1_59_17)"/>
<path d="M1486.92 115.484C1485.7 117.922 1483.97 121.109 1481.72 125.047C1479.56 128.984 1477.22 133.344 1474.69 138.125C1472.16 142.812 1469.58 147.734 1466.95 152.891C1464.42 158.047 1462.08 163.109 1459.92 168.078C1457.86 172.953 1456.12 177.594 1454.72 182C1453.41 186.312 1452.75 189.969 1452.75 192.969C1452.75 195.969 1453.31 197.938 1454.44 198.875C1455.66 199.719 1457.2 200.141 1459.08 200.141C1461.8 200.141 1464.56 199.344 1467.38 197.75C1470.28 196.156 1473.09 194.094 1475.81 191.562C1478.62 189.031 1481.34 186.172 1483.97 182.984C1486.59 179.797 1489.03 176.609 1491.28 173.422C1493.62 170.141 1495.73 167.047 1497.61 164.141C1499.48 161.141 1501.08 158.609 1502.39 156.547L1507.45 160.484C1505.86 163.484 1503.98 166.719 1501.83 170.188C1499.67 173.656 1497.28 177.172 1494.66 180.734C1492.12 184.203 1489.36 187.578 1486.36 190.859C1483.36 194.141 1480.17 197.047 1476.8 199.578C1473.52 202.109 1470.05 204.125 1466.39 205.625C1462.73 207.125 1458.98 207.875 1455.14 207.875C1449.52 207.875 1445.39 206.188 1442.77 202.812C1440.14 199.438 1438.83 195.078 1438.83 189.734C1438.83 189.359 1438.83 188.562 1438.83 187.344C1438.92 186.031 1439.06 185 1439.25 184.25C1434.56 190.156 1430.06 195.031 1425.75 198.875C1421.53 202.719 1417.41 205.766 1413.38 208.016C1409.44 210.266 1405.59 211.812 1401.84 212.656C1398.19 213.594 1394.67 214.062 1391.3 214.062C1387.73 214.062 1384.36 213.453 1381.17 212.234C1378.08 211.109 1375.36 209.422 1373.02 207.172C1370.58 204.922 1368.7 202.156 1367.39 198.875C1365.98 195.594 1365.28 191.797 1365.28 187.484C1365.28 182.141 1366.5 176.047 1368.94 169.203C1371.28 162.266 1375.5 154.812 1381.59 146.844C1386.75 140 1392.09 134.234 1397.62 129.547C1403.25 124.859 1408.73 121.109 1414.08 118.297C1419.52 115.391 1424.67 113.328 1429.55 112.109C1434.42 110.891 1438.78 110.281 1442.62 110.281C1451.25 110.281 1457.77 111.734 1462.17 114.641C1466.58 117.453 1469.25 121.812 1470.19 127.719C1472.06 125.375 1474.03 123.031 1476.09 120.688C1478.16 118.344 1480.27 115.953 1482.42 113.516L1486.92 115.484ZM1443.75 168.922C1444.97 166.953 1446.47 164.469 1448.25 161.469C1450.03 158.375 1451.91 155.234 1453.88 152.047C1455.84 148.766 1457.77 145.625 1459.64 142.625C1461.52 139.625 1463.16 137.094 1464.56 135.031C1464.56 134.188 1464.42 132.828 1464.14 130.953C1463.95 129.078 1463.34 127.203 1462.31 125.328C1461.28 123.359 1459.64 121.672 1457.39 120.266C1455.14 118.859 1452 118.156 1447.97 118.156C1445.06 118.156 1441.78 118.625 1438.12 119.562C1434.56 120.406 1430.72 121.906 1426.59 124.062C1422.56 126.125 1418.39 128.891 1414.08 132.359C1409.77 135.828 1405.45 140.141 1401.14 145.297C1394.67 153.078 1389.66 160.906 1386.09 168.781C1382.62 176.562 1380.89 183.594 1380.89 189.875C1380.89 195.219 1382.11 199.344 1384.55 202.25C1386.98 205.156 1390.45 206.609 1394.95 206.609C1400.11 206.609 1404.94 205.484 1409.44 203.234C1413.94 200.891 1418.16 197.891 1422.09 194.234C1426.03 190.578 1429.78 186.547 1433.34 182.141C1436.91 177.641 1440.38 173.234 1443.75 168.922Z" stroke="black" stroke-width="2" mask="url(#path-1-outside-1_59_17)"/>
<path d="M1541.62 205.906C1542.19 206.938 1543.03 208.531 1544.16 210.688C1545.28 212.938 1546.12 215.562 1546.69 218.562C1552.5 214.906 1558.17 211.016 1563.7 206.891C1569.33 202.672 1574.77 198.078 1580.02 193.109C1585.27 188.047 1590.33 182.516 1595.2 176.516C1600.17 170.516 1604.91 163.859 1609.41 156.547L1614.47 160.484C1609.69 168.359 1604.72 175.484 1599.56 181.859C1594.41 188.141 1589.02 193.906 1583.39 199.156C1577.86 204.406 1572.05 209.234 1565.95 213.641C1559.95 218.141 1553.67 222.406 1547.11 226.438C1546.73 235.156 1544.81 243.922 1541.34 252.734C1537.88 261.641 1533.42 270.219 1527.98 278.469C1522.64 286.719 1516.55 294.406 1509.7 301.531C1502.95 308.75 1496.11 315.031 1489.17 320.375C1482.14 325.719 1475.34 329.938 1468.78 333.031C1462.12 336.125 1456.27 337.672 1451.2 337.672C1447.55 337.672 1444.5 337.016 1442.06 335.703C1439.53 334.484 1437.52 332.891 1436.02 330.922C1434.52 328.953 1433.44 326.797 1432.78 324.453C1432.12 322.109 1431.8 319.859 1431.8 317.703C1431.8 312.266 1433.48 306.406 1436.86 300.125C1440.23 293.938 1445.25 287.469 1451.91 280.719C1458.47 274.062 1466.62 267.266 1476.38 260.328C1486.12 253.391 1497.33 246.5 1509.98 239.656C1514.39 237.219 1518.75 234.828 1523.06 232.484C1527.38 230.141 1531.69 227.703 1536 225.172C1536 224.703 1536 224.188 1536 223.625C1536.09 223.156 1536.14 222.688 1536.14 222.219C1536.14 219.406 1535.91 216.969 1535.44 214.906C1535.06 212.938 1534.5 211.25 1533.75 209.844C1528.59 211.906 1524.23 212.938 1520.67 212.938C1517.2 212.938 1514.3 212.094 1511.95 210.406C1509.61 208.812 1508.44 206.609 1508.44 203.797C1508.44 200.797 1509.75 198.5 1512.38 196.906C1515 195.219 1518.14 194.375 1521.8 194.375C1526.67 194.375 1531.22 195.969 1535.44 199.156C1539.75 195.781 1543.92 191.469 1547.95 186.219C1551.98 180.875 1555.55 175.156 1558.64 169.062C1561.73 162.875 1564.22 156.594 1566.09 150.219C1567.97 143.75 1568.91 137.703 1568.91 132.078C1568.91 128.984 1568.48 126.359 1567.64 124.203C1566.89 122.047 1565.86 120.312 1564.55 119C1563.23 117.594 1561.73 116.562 1560.05 115.906C1558.36 115.25 1556.58 114.922 1554.7 114.922C1550.86 114.922 1547.16 115.859 1543.59 117.734C1540.12 119.609 1536.84 122.047 1533.75 125.047C1530.66 127.953 1527.75 131.188 1525.03 134.75C1522.41 138.312 1519.97 141.781 1517.72 145.156C1515.56 148.531 1513.64 151.625 1511.95 154.438C1510.27 157.156 1508.86 159.172 1507.73 160.484L1502.53 156.547C1503.66 155.047 1505.06 152.844 1506.75 149.938C1508.53 146.938 1510.59 143.609 1512.94 139.953C1515.28 136.297 1517.91 132.547 1520.81 128.703C1523.72 124.859 1526.91 121.391 1530.38 118.297C1533.84 115.109 1537.59 112.531 1541.62 110.562C1545.75 108.5 1550.11 107.469 1554.7 107.469C1559.11 107.469 1563.05 108.219 1566.52 109.719C1570.08 111.125 1573.08 113.141 1575.52 115.766C1578.05 118.297 1579.97 121.391 1581.28 125.047C1582.69 128.703 1583.39 132.781 1583.39 137.281C1583.39 143.844 1582.27 150.453 1580.02 157.109C1577.77 163.766 1574.72 170.141 1570.88 176.234C1567.12 182.234 1562.72 187.812 1557.66 192.969C1552.59 198.031 1547.25 202.344 1541.62 205.906ZM1505.91 282.688C1508.81 279.031 1511.72 275.188 1514.62 271.156C1517.53 267.125 1520.25 263 1522.78 258.781C1525.31 254.656 1527.56 250.484 1529.53 246.266C1531.59 242.141 1533.19 238.109 1534.31 234.172L1513.64 245.844C1501.64 252.5 1491.47 258.734 1483.12 264.547C1474.69 270.453 1467.75 275.891 1462.31 280.859C1456.78 285.922 1452.47 290.469 1449.38 294.5C1446.28 298.531 1443.98 302.094 1442.48 305.188C1440.89 308.281 1439.95 310.812 1439.67 312.781C1439.3 314.844 1439.11 316.344 1439.11 317.281C1439.11 318.594 1439.25 319.906 1439.53 321.219C1439.81 322.625 1440.38 323.844 1441.22 324.875C1441.97 325.906 1443 326.75 1444.31 327.406C1445.62 328.062 1447.36 328.391 1449.52 328.391C1451.86 328.391 1454.77 327.734 1458.23 326.422C1461.61 325.109 1465.59 322.719 1470.19 319.25C1474.78 315.875 1480.03 311.234 1485.94 305.328C1491.84 299.422 1498.5 291.875 1505.91 282.688ZM1529.67 203.375C1528.36 202.531 1526.95 201.922 1525.45 201.547C1523.95 201.078 1522.69 200.844 1521.66 200.844C1517.62 200.844 1515.61 201.734 1515.61 203.516C1515.61 205.297 1517.34 206.188 1520.81 206.188C1521.75 206.188 1523.11 206 1524.89 205.625C1526.67 205.156 1528.27 204.406 1529.67 203.375Z" stroke="black" stroke-width="2" mask="url(#path-1-outside-1_59_17)"/>
<path d="M1672.55 84.2656C1672.55 86.1406 1672.08 88.1094 1671.14 90.1719C1670.2 92.1406 1668.98 93.9219 1667.48 95.5156C1666.08 97.1094 1664.48 98.4219 1662.7 99.4531C1660.92 100.484 1659.14 101 1657.36 101C1655.77 101 1654.55 100.438 1653.7 99.3125C1652.86 98.0938 1652.44 96.6406 1652.44 94.9531C1652.44 93.4531 1652.72 91.6719 1653.28 89.6094C1653.84 87.5469 1654.69 85.625 1655.81 83.8438C1656.94 81.9688 1658.3 80.375 1659.89 79.0625C1661.48 77.75 1663.31 77.0938 1665.38 77.0938C1667.34 77.0938 1669.03 77.8438 1670.44 79.3438C1671.84 80.8438 1672.55 82.4844 1672.55 84.2656ZM1646.25 115.484C1645.03 117.922 1643.3 121.156 1641.05 125.188C1638.89 129.125 1636.55 133.484 1634.02 138.266C1631.48 142.953 1628.91 147.922 1626.28 153.172C1623.66 158.328 1621.27 163.391 1619.11 168.359C1617.05 173.234 1615.36 177.828 1614.05 182.141C1612.73 186.453 1612.08 190.109 1612.08 193.109C1612.08 195.828 1612.64 197.703 1613.77 198.734C1614.89 199.672 1616.48 200.141 1618.55 200.141C1622.39 200.141 1626.14 198.875 1629.8 196.344C1633.45 193.812 1637.06 190.531 1640.62 186.5C1644.28 182.375 1647.84 177.688 1651.31 172.438C1654.78 167.188 1658.25 161.891 1661.72 156.547L1666.78 160.484C1664.06 165.359 1660.97 170.562 1657.5 176.094C1654.12 181.625 1650.33 186.781 1646.11 191.562C1641.89 196.25 1637.25 200.141 1632.19 203.234C1627.12 206.328 1621.59 207.875 1615.59 207.875C1609.97 207.875 1605.66 206.188 1602.66 202.812C1599.66 199.438 1598.16 195.078 1598.16 189.734C1598.16 183.453 1599.61 176.891 1602.52 170.047C1605.42 163.203 1609.03 156.453 1613.34 149.797C1617.75 143.047 1622.48 136.578 1627.55 130.391C1632.7 124.203 1637.44 118.578 1641.75 113.516L1646.25 115.484Z" stroke="black" stroke-width="2" mask="url(#path-1-outside-1_59_17)"/>
<path d="M1779.14 136.016C1779.14 140.047 1778.44 144.172 1777.03 148.391C1775.62 152.516 1773.84 156.688 1771.69 160.906C1769.53 165.031 1767.23 169.109 1764.8 173.141C1762.36 177.172 1760.06 181.062 1757.91 184.812C1755.75 188.562 1753.97 192.172 1752.56 195.641C1751.16 199.016 1750.45 202.109 1750.45 204.922C1750.45 207.078 1750.92 208.531 1751.86 209.281C1752.8 210.031 1753.83 210.406 1754.95 210.406C1758.52 210.406 1762.5 208.672 1766.91 205.203C1771.31 201.641 1775.77 197.188 1780.27 191.844C1784.86 186.5 1789.41 180.688 1793.91 174.406C1798.41 168.125 1802.48 162.172 1806.14 156.547L1811.2 160.484C1810.45 161.609 1809.09 163.859 1807.12 167.234C1805.16 170.516 1802.72 174.312 1799.81 178.625C1796.91 182.844 1793.62 187.297 1789.97 191.984C1786.41 196.578 1782.56 200.844 1778.44 204.781C1774.31 208.625 1770.05 211.812 1765.64 214.344C1761.33 216.875 1756.97 218.141 1752.56 218.141C1750.03 218.141 1747.73 217.719 1745.67 216.875C1743.61 216.031 1741.83 214.859 1740.33 213.359C1738.92 211.859 1737.8 210.125 1736.95 208.156C1736.11 206.094 1735.69 203.938 1735.69 201.688C1735.69 198.031 1736.48 194.094 1738.08 189.875C1739.77 185.562 1741.83 181.156 1744.27 176.656C1746.7 172.156 1749.38 167.656 1752.28 163.156C1755.19 158.562 1757.86 154.203 1760.3 150.078C1762.73 145.953 1764.75 142.156 1766.34 138.688C1768.03 135.125 1768.88 132.078 1768.88 129.547C1768.88 126.641 1768.08 124.203 1766.48 122.234C1764.98 120.266 1762.83 119.281 1760.02 119.281C1757.02 119.281 1753.55 120.547 1749.61 123.078C1745.67 125.516 1741.27 129.125 1736.39 133.906C1731.52 138.688 1726.17 144.594 1720.36 151.625C1714.64 158.562 1708.41 166.484 1701.66 175.391C1697.81 180.547 1694.06 185.516 1690.41 190.297C1688.81 192.359 1687.22 194.469 1685.62 196.625C1684.03 198.781 1682.44 200.938 1680.84 203.094C1679.25 205.156 1677.75 207.125 1676.34 209C1674.94 210.969 1673.67 212.656 1672.55 214.062L1660.17 209L1676.62 186.359C1678.97 183.172 1681.36 179.75 1683.8 176.094C1686.23 172.438 1688.62 168.688 1690.97 164.844C1693.41 160.906 1695.7 156.969 1697.86 153.031C1700.02 149.094 1702.03 145.25 1703.91 141.5C1706.62 135.875 1708.5 131.234 1709.53 127.578C1710.56 123.828 1711.08 120.828 1711.08 118.578C1711.08 116.047 1710.61 114.406 1709.67 113.656C1708.73 112.812 1707.42 112.391 1705.73 112.391C1703.95 112.391 1701.89 113.328 1699.55 115.203C1697.3 116.984 1694.95 119.328 1692.52 122.234C1690.08 125.047 1687.59 128.281 1685.06 131.938C1682.62 135.5 1680.28 139.062 1678.03 142.625C1675.78 146.188 1673.67 149.562 1671.7 152.75C1669.73 155.938 1668.09 158.516 1666.78 160.484L1661.72 156.547C1666.5 149.047 1670.81 142.203 1674.66 136.016C1678.59 129.734 1682.34 124.344 1685.91 119.844C1689.56 115.344 1693.08 111.875 1696.45 109.438C1699.92 106.906 1703.58 105.641 1707.42 105.641C1709.48 105.641 1711.45 106.062 1713.33 106.906C1715.3 107.75 1716.98 109.016 1718.39 110.703C1719.89 112.297 1721.06 114.266 1721.91 116.609C1722.75 118.953 1723.17 121.672 1723.17 124.766C1723.17 127.203 1722.89 129.734 1722.33 132.359C1726.45 128.328 1730.3 125 1733.86 122.375C1737.42 119.75 1740.7 117.688 1743.7 116.188C1746.7 114.594 1749.47 113.469 1752 112.812C1754.53 112.156 1756.83 111.828 1758.89 111.828C1760.67 111.828 1762.73 112.156 1765.08 112.812C1767.42 113.469 1769.62 114.688 1771.69 116.469C1773.75 118.25 1775.48 120.734 1776.89 123.922C1778.39 127.016 1779.14 131.047 1779.14 136.016Z" stroke="black" stroke-width="2" mask="url(#path-1-outside-1_59_17)"/>
<path d="M1816.97 176.938C1816.78 178.062 1816.64 179.188 1816.55 180.312C1816.45 181.438 1816.41 182.562 1816.41 183.688C1816.41 187.062 1816.88 190.297 1817.81 193.391C1818.84 196.391 1820.3 199.062 1822.17 201.406C1824.14 203.656 1826.53 205.438 1829.34 206.75C1832.25 208.062 1835.53 208.719 1839.19 208.719C1851.47 208.719 1863.33 204.547 1874.77 196.203C1886.2 187.859 1897.59 174.641 1908.94 156.547L1913.72 160.766C1907.53 171.078 1901.25 179.797 1894.88 186.922C1888.5 193.953 1882.12 199.672 1875.75 204.078C1869.47 208.484 1863.28 211.672 1857.19 213.641C1851.09 215.609 1845.28 216.594 1839.75 216.594C1835.72 216.594 1831.45 216.031 1826.95 214.906C1822.45 213.781 1818.28 211.906 1814.44 209.281C1810.69 206.656 1807.59 203.141 1805.16 198.734C1802.62 194.328 1801.36 188.844 1801.36 182.281C1801.36 175.25 1802.58 168.5 1805.02 162.031C1807.36 155.469 1810.45 149.375 1814.3 143.75C1818.14 138.125 1822.55 133.016 1827.52 128.422C1832.48 123.734 1837.5 119.75 1842.56 116.469C1847.72 113.188 1852.73 110.656 1857.61 108.875C1862.48 107 1866.8 106.062 1870.55 106.062C1872.98 106.062 1875.47 106.438 1878 107.188C1880.53 107.938 1882.78 109.109 1884.75 110.703C1886.81 112.297 1888.45 114.406 1889.67 117.031C1890.98 119.656 1891.64 122.797 1891.64 126.453C1891.64 131.422 1890.47 136.109 1888.12 140.516C1885.88 144.828 1882.83 148.859 1878.98 152.609C1875.14 156.266 1870.69 159.594 1865.62 162.594C1860.56 165.5 1855.27 167.984 1849.73 170.047C1844.2 172.109 1838.62 173.75 1833 174.969C1827.38 176.188 1822.03 176.844 1816.97 176.938ZM1818.09 170.891C1824.38 170.234 1830.28 168.922 1835.81 166.953C1841.34 164.984 1846.41 162.594 1851 159.781C1855.59 156.875 1859.67 153.734 1863.23 150.359C1866.89 146.984 1869.94 143.562 1872.38 140.094C1874.81 136.625 1876.69 133.297 1878 130.109C1879.31 126.922 1879.97 124.062 1879.97 121.531C1879.97 119 1879.27 116.984 1877.86 115.484C1876.55 113.984 1874.95 113.234 1873.08 113.234C1868.95 113.234 1864.31 114.734 1859.16 117.734C1854 120.641 1848.84 124.719 1843.69 129.969C1838.53 135.125 1833.66 141.219 1829.06 148.25C1824.56 155.281 1820.91 162.828 1818.09 170.891Z" stroke="black" stroke-width="2" mask="url(#path-1-outside-1_59_17)"/>
</svg>
